<svg width="1440" height="1080" viewBox="0 0 1440 1080" fill="none" xmlns="http://www.w3.org/2000/svg">
<g clip-path="url(#clip0_740_39292)">
<rect width="1440" height="1080" fill="#1A1B22"/>
<path d="M1857 -69C1857 190.022 1647.02 400 1388 400C1362.91 400 1338.28 398.03 1314.25 394.235L1311.04 399.798C1336.09 403.878 1361.8 406 1388 406C1650.34 406 1863 193.335 1863 -69C1863 -331.335 1650.34 -544 1388 -544C1125.66 -544 913 -331.335 913 -69C913 157.413 1071.41 346.827 1283.45 394.456L1286.59 389.008C1076.32 342.66 919 155.202 919 -69C919 -328.022 1128.98 -538 1388 -538C1647.02 -538 1857 -328.022 1857 -69Z" fill="white"/>
<path d="M1262.44 324.058L913 929.306L1355.48 1184.77L1720.28 552.911L1303.01 312L1300.01 317.196L1712.09 555.107L1353.28 1176.57L921.196 927.11L1267.64 327.058L1262.44 324.058Z" fill="#5A9BFF"/>
<path d="M-344.802 688.469L-95.7326 71.7486L344.63 570.207L-344.802 688.469Z" stroke="white" stroke-width="4"/>
</g>
<defs>
<clipPath id="clip0_740_39292">
<rect width="1440" height="1080" fill="white"/>
</clipPath>
</defs>
</svg>
