<svg width="16" height="16" viewBox="0 0 16 16" fill="none" xmlns="http://www.w3.org/2000/svg">
<g id="icon/check_mini">
<path id="Vector" d="M6.2222 10.6127L3.60954 8.00004C3.48452 7.87506 3.31498 7.80484 3.1382 7.80484C2.96143 7.80484 2.79189 7.87506 2.66687 8.00004C2.54189 8.12505 2.47168 8.29459 2.47168 8.47137C2.47168 8.64815 2.54189 8.81768 2.66687 8.9427L5.27954 11.5554C5.40336 11.6792 5.55037 11.7775 5.71217 11.8445C5.87397 11.9116 6.0474 11.9461 6.22254 11.9461C6.39768 11.9461 6.5711 11.9116 6.73291 11.8445C6.89471 11.7775 7.04172 11.6792 7.16554 11.5554L13.3335 5.38737C13.4585 5.26235 13.5287 5.09281 13.5287 4.91604C13.5287 4.73926 13.4585 4.56972 13.3335 4.4447C13.2085 4.31972 13.039 4.24951 12.8622 4.24951C12.6854 4.24951 12.5159 4.31972 12.3909 4.4447L6.2222 10.6127Z" fill="#1D6BF3"/>
</g>
</svg>
