<svg width="14" height="14" viewBox="0 0 14 14" fill="none" xmlns="http://www.w3.org/2000/svg">
<path d="M7 14C3.12941 14 0 10.8706 0 7C0 3.12941 3.12941 0 7 0C10.8706 0 14 3.12941 14 7C14 10.8706 10.8706 14 7 14ZM7 0.823529C3.58235 0.823529 0.823529 3.58235 0.823529 7C0.823529 10.4176 3.58235 13.1765 7 13.1765C10.4176 13.1765 13.1765 10.4176 13.1765 7C13.1765 3.58235 10.4176 0.823529 7 0.823529Z" fill="white"/>
<path d="M3.29412 7C3.29412 6.77259 3.47847 6.58824 3.70588 6.58824H10.2941C10.5215 6.58824 10.7059 6.77259 10.7059 7C10.7059 7.22741 10.5215 7.41176 10.2941 7.41176H3.70588C3.47847 7.41176 3.29412 7.22741 3.29412 7Z" fill="white"/>
<path d="M6.58824 3.70588C6.58824 3.47847 6.77259 3.29412 7 3.29412C7.22741 3.29412 7.41176 3.47847 7.41176 3.70588V10.2941C7.41176 10.5215 7.22741 10.7059 7 10.7059C6.77259 10.7059 6.58824 10.5215 6.58824 10.2941V3.70588Z" fill="white"/>
</svg>
