<svg width="16" height="16" viewBox="0 0 16 16" fill="none" xmlns="http://www.w3.org/2000/svg">
<path d="M8.47317 7.52659C8.40977 7.46589 8.335 7.41831 8.25317 7.38658C8.09086 7.31991 7.90881 7.31991 7.7465 7.38658C7.66467 7.41831 7.58991 7.46589 7.5265 7.52659L6.19317 8.85992C6.06763 8.98545 5.99711 9.15572 5.99711 9.33325C5.99711 9.51079 6.06763 9.68105 6.19317 9.80658C6.31871 9.93212 6.48897 10.0026 6.6665 10.0026C6.84404 10.0026 7.0143 9.93212 7.13984 9.80658L7.33317 9.60658V11.3333C7.33317 11.5101 7.40341 11.6796 7.52843 11.8047C7.65346 11.9297 7.82303 11.9999 7.99984 11.9999C8.17665 11.9999 8.34622 11.9297 8.47124 11.8047C8.59627 11.6796 8.6665 11.5101 8.6665 11.3333V9.60658L8.85984 9.80658C8.92181 9.86907 8.99555 9.91867 9.07679 9.95251C9.15803 9.98636 9.24516 10.0038 9.33317 10.0038C9.42118 10.0038 9.50832 9.98636 9.58956 9.95251C9.67079 9.91867 9.74453 9.86907 9.8065 9.80658C9.86899 9.74461 9.91859 9.67088 9.95243 9.58964C9.98628 9.5084 10.0037 9.42126 10.0037 9.33325C10.0037 9.24524 9.98628 9.15811 9.95243 9.07687C9.91859 8.99563 9.86899 8.92189 9.8065 8.85992L8.47317 7.52659ZM13.3332 5.95992C13.3262 5.89867 13.3128 5.83834 13.2932 5.77992V5.71992C13.2611 5.65137 13.2184 5.58836 13.1665 5.53325L9.1665 1.53325C9.11139 1.4814 9.04838 1.43864 8.97984 1.40659H8.91317C8.84835 1.37192 8.77868 1.3472 8.7065 1.33325H4.6665C4.13607 1.33325 3.62736 1.54397 3.25229 1.91904C2.87722 2.29411 2.6665 2.80282 2.6665 3.33325V12.6666C2.6665 13.197 2.87722 13.7057 3.25229 14.0808C3.62736 14.4559 4.13607 14.6666 4.6665 14.6666H11.3332C11.8636 14.6666 12.3723 14.4559 12.7474 14.0808C13.1225 13.7057 13.3332 13.197 13.3332 12.6666V5.99992C13.3332 5.99992 13.3332 5.99992 13.3332 5.95992ZM9.33317 3.60659L11.0598 5.33325H9.99984C9.82303 5.33325 9.65346 5.26301 9.52843 5.13799C9.40341 5.01297 9.33317 4.8434 9.33317 4.66658V3.60659ZM11.9998 12.6666C11.9998 12.8434 11.9296 13.013 11.8046 13.138C11.6796 13.263 11.51 13.3333 11.3332 13.3333H4.6665C4.48969 13.3333 4.32012 13.263 4.1951 13.138C4.07008 13.013 3.99984 12.8434 3.99984 12.6666V3.33325C3.99984 3.15644 4.07008 2.98687 4.1951 2.86185C4.32012 2.73682 4.48969 2.66659 4.6665 2.66659H7.99984V4.66658C7.99984 5.19702 8.21055 5.70573 8.58562 6.0808C8.9607 6.45587 9.4694 6.66658 9.99984 6.66658H11.9998V12.6666Z" fill="#1D6BF3"/>
</svg>
