<svg width="16" height="16" viewBox="0 0 16 16" fill="none" xmlns="http://www.w3.org/2000/svg">
<path d="M12.5569 3.44332C12.2726 3.15944 11.8873 3 11.4855 3C11.0837 3 10.6984 3.15944 10.4141 3.44332L3.61265 10.2449C3.41788 10.4386 3.26345 10.669 3.15829 10.9227C3.05313 11.1765 2.99933 11.4486 3.00001 11.7232V12.5818C3.00001 12.6927 3.04407 12.7991 3.12249 12.8775C3.20092 12.9559 3.30729 13 3.4182 13H4.27674C4.55139 13.0008 4.82347 12.9471 5.07722 12.842C5.33097 12.7369 5.56136 12.5825 5.75504 12.3877L12.5569 5.58575C12.8406 5.30145 13 4.9162 13 4.51453C13 4.11287 12.8406 3.72761 12.5569 3.44332ZM5.16372 11.7964C4.92786 12.0307 4.60919 12.1626 4.27674 12.1636H3.83639V11.7232C3.83596 11.5584 3.86823 11.3952 3.93133 11.2429C3.99443 11.0907 4.0871 10.9524 4.20398 10.8362L9.36569 5.67441L10.3275 6.63626L5.16372 11.7964ZM11.9652 4.99442L10.9172 6.04284L9.95534 5.08307L11.0037 4.03465C11.0669 3.97163 11.1418 3.92167 11.2243 3.88761C11.3068 3.85356 11.3951 3.83608 11.4844 3.83618C11.5736 3.83628 11.6619 3.85395 11.7443 3.88818C11.8267 3.92241 11.9015 3.97254 11.9645 4.0357C12.0276 4.09885 12.0775 4.1738 12.1116 4.25627C12.1456 4.33873 12.1631 4.4271 12.163 4.51632C12.1629 4.60554 12.1452 4.69386 12.111 4.77625C12.0768 4.85865 12.0266 4.93349 11.9635 4.99651L11.9652 4.99442Z" fill="#5A9BFF"/>
</svg>
