<svg width="155" height="32" viewBox="0 0 155 32" fill="none" xmlns="http://www.w3.org/2000/svg">
<rect x="0.5" y="0.5" width="154" height="31" rx="5.5" stroke="#FF0200"/>
<path d="M17.8132 18.284C17.6265 18.7227 17.4305 19.1147 17.2252 19.46C17.0199 19.796 16.7912 20.0807 16.5392 20.314C16.2872 20.5473 15.9979 20.7247 15.6712 20.846C15.3539 20.958 14.9852 21.014 14.5652 21.014C14.5185 21.014 14.4719 21.014 14.4252 21.014C14.3785 21.014 14.3319 21.0093 14.2852 21V19.684C14.3319 19.6933 14.3785 19.698 14.4252 19.698C14.4812 19.698 14.5325 19.698 14.5792 19.698C15.0739 19.698 15.4612 19.586 15.7412 19.362C16.0305 19.138 16.2685 18.858 16.4552 18.522L12.7312 10.962H14.2292L17.1272 17.01L19.6332 10.962H20.9912L17.8132 18.284ZM20.6941 19.95C20.9555 19.7913 21.1608 19.544 21.3101 19.208C21.4595 18.872 21.5761 18.4473 21.6601 17.934C21.7441 17.4207 21.8001 16.814 21.8281 16.114C21.8655 15.414 21.8981 14.6207 21.9261 13.734H26.9241V19.95H28.0161V23.072H26.9381L26.7841 21H21.3801L21.2541 23.072H20.1481V19.95H20.6941ZM25.6921 19.95V14.784H23.0321C22.9855 16.156 22.8968 17.2573 22.7661 18.088C22.6448 18.9093 22.4301 19.53 22.1221 19.95H25.6921ZM33.4906 19.614C33.4066 19.782 33.2992 19.9593 33.1686 20.146C33.0379 20.3233 32.8746 20.4867 32.6786 20.636C32.4826 20.7853 32.2492 20.9067 31.9786 21C31.7172 21.0933 31.4092 21.14 31.0546 21.14C30.4012 21.14 29.8739 20.958 29.4726 20.594C29.0712 20.2207 28.8706 19.6887 28.8706 18.998C28.8706 18.2047 29.1459 17.6213 29.6966 17.248C30.2566 16.8747 31.0499 16.688 32.0766 16.688H33.4346V16.086C33.4346 15.582 33.3039 15.2227 33.0426 15.008C32.7812 14.7933 32.3332 14.686 31.6986 14.686C31.2506 14.686 30.8259 14.7607 30.4246 14.91C30.0232 15.05 29.6639 15.2133 29.3466 15.4V14.294C29.6079 14.1353 29.9579 13.9813 30.3966 13.832C30.8446 13.6733 31.3346 13.594 31.8666 13.594C32.7812 13.594 33.4766 13.7853 33.9526 14.168C34.4286 14.5413 34.6666 15.1247 34.6666 15.918V19.824C34.6666 19.908 34.6666 20.006 34.6666 20.118C34.6759 20.2207 34.6806 20.328 34.6806 20.44C34.6899 20.552 34.6992 20.6593 34.7086 20.762C34.7179 20.8553 34.7272 20.9347 34.7366 21H33.6166C33.5886 20.8693 33.5606 20.6873 33.5326 20.454C33.5139 20.2113 33.5046 20.0013 33.5046 19.824L33.4906 19.614ZM31.3206 20.034C31.7032 20.034 32.0299 19.9547 32.3006 19.796C32.5712 19.6373 32.7906 19.4553 32.9586 19.25C33.1266 19.0353 33.2479 18.83 33.3226 18.634C33.3972 18.4287 33.4346 18.284 33.4346 18.2V17.668H32.2026C31.4652 17.668 30.9286 17.7753 30.5926 17.99C30.2659 18.1953 30.1026 18.508 30.1026 18.928C30.1026 19.2547 30.2006 19.5207 30.3966 19.726C30.5926 19.9313 30.9006 20.034 31.3206 20.034ZM37.1637 18.746C37.2944 18.27 37.3784 17.626 37.4157 16.814C37.453 16.002 37.4717 14.9753 37.4717 13.734H42.3577V21H41.1117V14.784H38.6337C38.6244 15.7827 38.5917 16.6693 38.5357 17.444C38.489 18.2187 38.3817 18.872 38.2137 19.404C38.055 19.936 37.817 20.342 37.4997 20.622C37.1917 20.8927 36.7764 21.028 36.2537 21.028C36.2164 21.028 36.179 21.028 36.1417 21.028C36.1044 21.028 36.0624 21.0233 36.0157 21.014V19.796C36.0624 19.8053 36.123 19.81 36.1977 19.81C36.6737 19.81 36.9957 19.4553 37.1637 18.746ZM45.5877 19.32L49.4657 13.734H50.7117V21H49.4797V15.428L45.6157 21H44.3557V13.734H45.5877V19.32ZM55.6488 14.784V21H54.4168V14.784H52.1348V13.734H57.9728V14.784H55.6488ZM64.7987 18.578C64.7987 18.998 64.7241 19.362 64.5747 19.67C64.4254 19.978 64.2154 20.23 63.9447 20.426C63.6741 20.622 63.3521 20.7667 62.9787 20.86C62.6054 20.9533 62.1994 21 61.7607 21H59.3527V13.734H60.5847V16.268H61.8447C62.7687 16.268 63.4921 16.45 64.0147 16.814C64.5374 17.178 64.7987 17.766 64.7987 18.578ZM60.5847 17.318V19.95H61.7607C62.2927 19.95 62.7221 19.852 63.0487 19.656C63.3847 19.4507 63.5527 19.1147 63.5527 18.648C63.5527 18.172 63.4034 17.8313 63.1047 17.626C62.8061 17.4207 62.3861 17.318 61.8447 17.318H60.5847ZM69.4435 13.734H72.1595C73.0369 13.734 73.6995 13.888 74.1475 14.196C74.5955 14.4947 74.8195 14.966 74.8195 15.61C74.8195 16.0393 74.7075 16.3847 74.4835 16.646C74.2689 16.898 73.9609 17.08 73.5595 17.192C74.5955 17.36 75.1135 17.934 75.1135 18.914C75.1135 19.2873 75.0389 19.6093 74.8895 19.88C74.7402 20.1413 74.5349 20.356 74.2735 20.524C74.0122 20.692 73.6949 20.8133 73.3215 20.888C72.9575 20.9627 72.5609 21 72.1315 21H69.4435V13.734ZM70.6755 14.784V16.758H72.0475C72.5142 16.758 72.8875 16.674 73.1675 16.506C73.4569 16.338 73.6015 16.0953 73.6015 15.778C73.6015 15.3953 73.4755 15.134 73.2235 14.994C72.9715 14.854 72.6122 14.784 72.1455 14.784H70.6755ZM70.6755 17.738V19.95H72.1175C72.3789 19.95 72.6122 19.936 72.8175 19.908C73.0322 19.8707 73.2142 19.81 73.3635 19.726C73.5222 19.642 73.6435 19.53 73.7275 19.39C73.8115 19.25 73.8535 19.0773 73.8535 18.872C73.8535 18.452 73.7089 18.158 73.4195 17.99C73.1302 17.822 72.6962 17.738 72.1175 17.738H70.6755ZM82.3391 18.578C82.3391 18.998 82.2644 19.362 82.1151 19.67C81.9657 19.978 81.7557 20.23 81.4851 20.426C81.2144 20.622 80.8924 20.7667 80.5191 20.86C80.1457 20.9533 79.7397 21 79.3011 21H76.9631V13.734H78.1951V16.268H79.3851C80.3091 16.268 81.0324 16.45 81.5551 16.814C82.0777 17.178 82.3391 17.766 82.3391 18.578ZM84.6211 21H83.3891V13.734H84.6211V21ZM78.1951 17.318V19.95H79.3011C79.8331 19.95 80.2624 19.852 80.5891 19.656C80.9251 19.4507 81.0931 19.1147 81.0931 18.648C81.0931 18.172 80.9437 17.8313 80.6451 17.626C80.3464 17.4207 79.9264 17.318 79.3851 17.318H78.1951ZM93.1948 17.36C93.1948 17.9667 93.1014 18.5033 92.9148 18.97C92.7374 19.4367 92.4901 19.8333 92.1728 20.16C91.8648 20.4773 91.4961 20.72 91.0668 20.888C90.6374 21.056 90.1708 21.14 89.6668 21.14C89.1534 21.14 88.6821 21.056 88.2528 20.888C87.8234 20.7107 87.4548 20.4447 87.1468 20.09C86.8388 19.7353 86.5961 19.2873 86.4188 18.746C86.2508 18.2047 86.1668 17.5653 86.1668 16.828C86.1668 16.2213 86.1854 15.6427 86.2228 15.092C86.2601 14.5413 86.3441 14.0327 86.4748 13.566C86.6054 13.09 86.7921 12.6653 87.0348 12.292C87.2868 11.9093 87.6228 11.592 88.0428 11.34C88.2761 11.2 88.5188 11.0973 88.7708 11.032C89.0228 10.9573 89.2748 10.9013 89.5268 10.864C89.7881 10.8267 90.0494 10.8033 90.3108 10.794C90.5721 10.7847 90.8288 10.7753 91.0808 10.766C91.4541 10.738 91.7668 10.6913 92.0188 10.626C92.2708 10.5607 92.4948 10.472 92.6908 10.36V11.48C92.4854 11.6107 92.2661 11.704 92.0328 11.76C91.8088 11.8067 91.5334 11.8487 91.2068 11.886C90.6748 11.9327 90.1848 11.97 89.7368 11.998C89.2981 12.0167 88.8968 12.1193 88.5328 12.306C88.0661 12.5673 87.7348 12.9593 87.5388 13.482C87.3521 13.9953 87.2354 14.6067 87.1888 15.316C87.6741 14.196 88.5888 13.636 89.9328 13.636C90.3901 13.636 90.8148 13.72 91.2068 13.888C91.6081 14.0467 91.9534 14.2847 92.2428 14.602C92.5414 14.9193 92.7748 15.3113 92.9428 15.778C93.1108 16.2353 93.1948 16.7627 93.1948 17.36ZM89.6668 20.034C89.9934 20.034 90.2921 19.9827 90.5628 19.88C90.8428 19.768 91.0854 19.6047 91.2908 19.39C91.4961 19.166 91.6548 18.886 91.7668 18.55C91.8788 18.214 91.9348 17.8173 91.9348 17.36C91.9348 16.9027 91.8788 16.506 91.7668 16.17C91.6548 15.834 91.4961 15.5587 91.2908 15.344C91.0854 15.12 90.8428 14.9567 90.5628 14.854C90.2921 14.742 89.9934 14.686 89.6668 14.686C89.0228 14.686 88.4861 14.9007 88.0568 15.33C87.6368 15.7593 87.4268 16.422 87.4268 17.318C87.4268 17.7847 87.4828 18.1907 87.5948 18.536C87.7068 18.872 87.8608 19.152 88.0568 19.376C88.2621 19.6 88.5001 19.768 88.7708 19.88C89.0414 19.9827 89.3401 20.034 89.6668 20.034ZM98.3905 21.14C97.8305 21.14 97.3452 21.0093 96.9345 20.748C96.5332 20.4867 96.2112 20.1273 95.9685 19.67V23.478H94.7365V13.734H95.8145L95.9405 15.148C96.1832 14.672 96.5098 14.294 96.9205 14.014C97.3312 13.734 97.8398 13.594 98.4465 13.594C98.8665 13.594 99.2678 13.6733 99.6505 13.832C100.043 13.9813 100.383 14.2147 100.673 14.532C100.971 14.84 101.205 15.232 101.373 15.708C101.55 16.1747 101.639 16.7253 101.639 17.36C101.639 18.004 101.55 18.564 101.373 19.04C101.195 19.5067 100.957 19.8987 100.659 20.216C100.36 20.524 100.015 20.7573 99.6225 20.916C99.2305 21.0653 98.8198 21.14 98.3905 21.14ZM98.2085 20.034C98.8525 20.034 99.3705 19.8147 99.7625 19.376C100.164 18.928 100.365 18.256 100.365 17.36C100.365 16.4827 100.164 15.82 99.7625 15.372C99.3705 14.9147 98.8525 14.686 98.2085 14.686C97.8912 14.686 97.5925 14.742 97.3125 14.854C97.0418 14.966 96.8038 15.134 96.5985 15.358C96.4025 15.5727 96.2438 15.848 96.1225 16.184C96.0105 16.52 95.9545 16.912 95.9545 17.36C95.9545 17.808 96.0105 18.2 96.1225 18.536C96.2438 18.872 96.4025 19.152 96.5985 19.376C96.8038 19.6 97.0418 19.768 97.3125 19.88C97.5925 19.9827 97.8912 20.034 98.2085 20.034ZM107.319 19.614C107.235 19.782 107.127 19.9593 106.997 20.146C106.866 20.3233 106.703 20.4867 106.507 20.636C106.311 20.7853 106.077 20.9067 105.807 21C105.545 21.0933 105.237 21.14 104.883 21.14C104.229 21.14 103.702 20.958 103.301 20.594C102.899 20.2207 102.699 19.6887 102.699 18.998C102.699 18.2047 102.974 17.6213 103.525 17.248C104.085 16.8747 104.878 16.688 105.905 16.688H107.263V16.086C107.263 15.582 107.132 15.2227 106.871 15.008C106.609 14.7933 106.161 14.686 105.527 14.686C105.079 14.686 104.654 14.7607 104.253 14.91C103.851 15.05 103.492 15.2133 103.175 15.4V14.294C103.436 14.1353 103.786 13.9813 104.225 13.832C104.673 13.6733 105.163 13.594 105.695 13.594C106.609 13.594 107.305 13.7853 107.781 14.168C108.257 14.5413 108.495 15.1247 108.495 15.918V19.824C108.495 19.908 108.495 20.006 108.495 20.118C108.504 20.2207 108.509 20.328 108.509 20.44C108.518 20.552 108.527 20.6593 108.537 20.762C108.546 20.8553 108.555 20.9347 108.565 21H107.445C107.417 20.8693 107.389 20.6873 107.361 20.454C107.342 20.2113 107.333 20.0013 107.333 19.824L107.319 19.614ZM105.149 20.034C105.531 20.034 105.858 19.9547 106.129 19.796C106.399 19.6373 106.619 19.4553 106.787 19.25C106.955 19.0353 107.076 18.83 107.151 18.634C107.225 18.4287 107.263 18.284 107.263 18.2V17.668H106.031C105.293 17.668 104.757 17.7753 104.421 17.99C104.094 18.1953 103.931 18.508 103.931 18.928C103.931 19.2547 104.029 19.5207 104.225 19.726C104.421 19.9313 104.729 20.034 105.149 20.034ZM115.178 17.78H111.664V21H110.432V13.734H111.664V16.73H115.178V13.734H116.41V21H115.178V17.78ZM123.176 17.78H119.662V21H118.43V13.734H119.662V16.73H123.176V13.734H124.408V21H123.176V17.78ZM131.804 18.578C131.804 18.998 131.729 19.362 131.58 19.67C131.431 19.978 131.221 20.23 130.95 20.426C130.679 20.622 130.357 20.7667 129.984 20.86C129.611 20.9533 129.205 21 128.766 21H126.428V13.734H127.66V16.268H128.85C129.774 16.268 130.497 16.45 131.02 16.814C131.543 17.178 131.804 17.766 131.804 18.578ZM134.086 21H132.854V13.734H134.086V21ZM127.66 17.318V19.95H128.766C129.298 19.95 129.727 19.852 130.054 19.656C130.39 19.4507 130.558 19.1147 130.558 18.648C130.558 18.172 130.409 17.8313 130.11 17.626C129.811 17.4207 129.391 17.318 128.85 17.318H127.66ZM141.89 20.384C141.787 20.4587 141.661 20.538 141.512 20.622C141.362 20.706 141.18 20.79 140.966 20.874C140.751 20.9487 140.508 21.0093 140.238 21.056C139.967 21.112 139.664 21.14 139.328 21.14C138.105 21.14 137.176 20.8087 136.542 20.146C135.907 19.4833 135.59 18.5547 135.59 17.36C135.59 16.772 135.674 16.2447 135.842 15.778C136.019 15.3113 136.262 14.9193 136.57 14.602C136.878 14.2753 137.242 14.028 137.662 13.86C138.082 13.6827 138.539 13.594 139.034 13.594C139.556 13.594 140.023 13.6827 140.434 13.86C140.844 14.0373 141.18 14.2987 141.442 14.644C141.712 14.9893 141.894 15.4187 141.988 15.932C142.09 16.436 142.09 17.024 141.988 17.696H136.864C136.91 18.48 137.144 19.068 137.564 19.46C137.984 19.8427 138.609 20.034 139.44 20.034C140 20.034 140.48 19.9547 140.882 19.796C141.283 19.6373 141.619 19.4647 141.89 19.278V20.384ZM139.006 14.686C138.474 14.686 138.016 14.8493 137.634 15.176C137.251 15.5027 137.008 15.9973 136.906 16.66H140.812C140.849 15.988 140.695 15.4933 140.35 15.176C140.004 14.8493 139.556 14.686 139.006 14.686Z" fill="#FF0200"/>
</svg>
