<svg width="132" height="32" viewBox="0 0 132 32" fill="none" xmlns="http://www.w3.org/2000/svg">
<rect x="0.5" y="0.5" width="131" height="31" rx="5.5" stroke="#1D6BF3"/>
<path d="M17.7689 19.14C17.0969 19.14 16.4669 19.028 15.8789 18.804C15.2909 18.5707 14.7822 18.2347 14.3529 17.796C13.9236 17.3573 13.5829 16.816 13.3309 16.172C13.0882 15.528 12.9669 14.786 12.9669 13.946C12.9669 13.106 13.0882 12.3687 13.3309 11.734C13.5829 11.09 13.9236 10.558 14.3529 10.138C14.7822 9.70867 15.2909 9.38667 15.8789 9.172C16.4669 8.948 17.0969 8.836 17.7689 8.836C18.4502 8.836 19.0849 8.948 19.6729 9.172C20.2609 9.38667 20.7696 9.70867 21.1989 10.138C21.6282 10.5673 21.9642 11.104 22.2069 11.748C22.4496 12.3827 22.5709 13.12 22.5709 13.96C22.5709 14.7907 22.4496 15.528 22.2069 16.172C21.9642 16.816 21.6282 17.3573 21.1989 17.796C20.7696 18.2347 20.2609 18.5707 19.6729 18.804C19.0849 19.028 18.4502 19.14 17.7689 19.14ZM17.7689 17.95C18.2542 17.95 18.7022 17.88 19.1129 17.74C19.5236 17.5907 19.8782 17.362 20.1769 17.054C20.4849 16.7367 20.7229 16.326 20.8909 15.822C21.0682 15.318 21.1569 14.7067 21.1569 13.988C21.1569 13.2693 21.0682 12.658 20.8909 12.154C20.7229 11.65 20.4849 11.244 20.1769 10.936C19.8782 10.6187 19.5236 10.39 19.1129 10.25C18.7022 10.1007 18.2542 10.026 17.7689 10.026C17.2836 10.026 16.8356 10.1007 16.4249 10.25C16.0142 10.39 15.6549 10.6187 15.3469 10.936C15.0482 11.244 14.8102 11.65 14.6329 12.154C14.4649 12.658 14.3809 13.2693 14.3809 13.988C14.3809 14.7067 14.4649 15.318 14.6329 15.822C14.8102 16.326 15.0482 16.7367 15.3469 17.054C15.6549 17.362 16.0142 17.5907 16.4249 17.74C16.8356 17.88 17.2836 17.95 17.7689 17.95ZM29.7883 19H28.5563V15.808C28.3043 16.004 28.0103 16.158 27.6743 16.27C27.3477 16.3727 26.9743 16.424 26.5543 16.424C25.733 16.424 25.103 16.2233 24.6643 15.822C24.235 15.4113 24.0203 14.758 24.0203 13.862V11.734H25.2663V13.876C25.2663 14.4453 25.397 14.842 25.6583 15.066C25.9197 15.29 26.2883 15.402 26.7643 15.402C27.091 15.402 27.4083 15.3553 27.7163 15.262C28.0243 15.1687 28.3043 15.024 28.5563 14.828V11.734H29.7883V19ZM33.0349 17.32L36.9129 11.734H38.1589V19H36.9269V13.428L33.0629 19H31.8029V11.734H33.0349V17.32ZM43.3061 19.14C42.7461 19.14 42.2374 19.056 41.7801 18.888C41.3321 18.7107 40.9494 18.4633 40.6321 18.146C40.3148 17.8193 40.0721 17.4227 39.9041 16.956C39.7361 16.4893 39.6521 15.9573 39.6521 15.36C39.6521 14.772 39.7361 14.2447 39.9041 13.778C40.0814 13.3113 40.3288 12.9193 40.6461 12.602C40.9634 12.2753 41.3508 12.028 41.8081 11.86C42.2654 11.6827 42.7834 11.594 43.3621 11.594C43.8101 11.594 44.2208 11.6453 44.5941 11.748C44.9674 11.8413 45.2754 11.9813 45.5181 12.168V13.274C45.2194 13.078 44.8834 12.9333 44.5101 12.84C44.1461 12.7373 43.7681 12.686 43.3761 12.686C42.5268 12.686 41.9014 12.9053 41.5001 13.344C41.1081 13.7827 40.9121 14.4547 40.9121 15.36C40.9121 16.2653 41.1034 16.9373 41.4861 17.376C41.8688 17.8147 42.4754 18.034 43.3061 18.034C43.7448 18.034 44.1461 17.9827 44.5101 17.88C44.8834 17.768 45.2194 17.628 45.5181 17.46V18.566C45.2568 18.7247 44.9394 18.86 44.5661 18.972C44.2021 19.084 43.7821 19.14 43.3061 19.14ZM50.0961 12.784V19H48.8641V12.784H46.5821V11.734H52.4201V12.784H50.0961ZM55.074 17.32L58.952 11.734H60.198V19H58.966V13.428L55.102 19H53.842V11.734H55.074V17.32ZM65.1352 12.784V19H63.9032V12.784H61.6212V11.734H67.4592V12.784H65.1352ZM74.285 16.578C74.285 16.998 74.2104 17.362 74.061 17.67C73.9117 17.978 73.7017 18.23 73.431 18.426C73.1604 18.622 72.8384 18.7667 72.465 18.86C72.0917 18.9533 71.6857 19 71.247 19H68.839V11.734H70.071V14.268H71.331C72.255 14.268 72.9784 14.45 73.501 14.814C74.0237 15.178 74.285 15.766 74.285 16.578ZM70.071 15.318V17.95H71.247C71.779 17.95 72.2084 17.852 72.535 17.656C72.871 17.4507 73.039 17.1147 73.039 16.648C73.039 16.172 72.8897 15.8313 72.591 15.626C72.2924 15.4207 71.8724 15.318 71.331 15.318H70.071ZM78.9299 11.734H81.6459C82.5232 11.734 83.1859 11.888 83.6339 12.196C84.0819 12.4947 84.3059 12.966 84.3059 13.61C84.3059 14.0393 84.1939 14.3847 83.9699 14.646C83.7552 14.898 83.4472 15.08 83.0459 15.192C84.0819 15.36 84.5999 15.934 84.5999 16.914C84.5999 17.2873 84.5252 17.6093 84.3759 17.88C84.2265 18.1413 84.0212 18.356 83.7599 18.524C83.4985 18.692 83.1812 18.8133 82.8079 18.888C82.4439 18.9627 82.0472 19 81.6179 19H78.9299V11.734ZM80.1619 12.784V14.758H81.5339C82.0005 14.758 82.3739 14.674 82.6539 14.506C82.9432 14.338 83.0879 14.0953 83.0879 13.778C83.0879 13.3953 82.9619 13.134 82.7099 12.994C82.4579 12.854 82.0985 12.784 81.6319 12.784H80.1619ZM80.1619 15.738V17.95H81.6039C81.8652 17.95 82.0985 17.936 82.3039 17.908C82.5185 17.8707 82.7005 17.81 82.8499 17.726C83.0085 17.642 83.1299 17.53 83.2139 17.39C83.2979 17.25 83.3399 17.0773 83.3399 16.872C83.3399 16.452 83.1952 16.158 82.9059 15.99C82.6165 15.822 82.1825 15.738 81.6039 15.738H80.1619ZM91.8254 16.578C91.8254 16.998 91.7507 17.362 91.6014 17.67C91.4521 17.978 91.2421 18.23 90.9714 18.426C90.7007 18.622 90.3787 18.7667 90.0054 18.86C89.6321 18.9533 89.2261 19 88.7874 19H86.4494V11.734H87.6814V14.268H88.8714C89.7954 14.268 90.5187 14.45 91.0414 14.814C91.5641 15.178 91.8254 15.766 91.8254 16.578ZM94.1074 19H92.8754V11.734H94.1074V19ZM87.6814 15.318V17.95H88.7874C89.3194 17.95 89.7487 17.852 90.0754 17.656C90.4114 17.4507 90.5794 17.1147 90.5794 16.648C90.5794 16.172 90.4301 15.8313 90.1314 15.626C89.8327 15.4207 89.4127 15.318 88.8714 15.318H87.6814ZM102.681 15.36C102.681 15.9667 102.588 16.5033 102.401 16.97C102.224 17.4367 101.976 17.8333 101.659 18.16C101.351 18.4773 100.982 18.72 100.553 18.888C100.124 19.056 99.6571 19.14 99.1531 19.14C98.6398 19.14 98.1684 19.056 97.7391 18.888C97.3098 18.7107 96.9411 18.4447 96.6331 18.09C96.3251 17.7353 96.0824 17.2873 95.9051 16.746C95.7371 16.2047 95.6531 15.5653 95.6531 14.828C95.6531 14.2213 95.6718 13.6427 95.7091 13.092C95.7464 12.5413 95.8304 12.0327 95.9611 11.566C96.0918 11.09 96.2784 10.6653 96.5211 10.292C96.7731 9.90933 97.1091 9.592 97.5291 9.34C97.7624 9.2 98.0051 9.09733 98.2571 9.032C98.5091 8.95733 98.7611 8.90133 99.0131 8.864C99.2744 8.82667 99.5358 8.80333 99.7971 8.794C100.058 8.78467 100.315 8.77533 100.567 8.766C100.94 8.738 101.253 8.69133 101.505 8.626C101.757 8.56067 101.981 8.472 102.177 8.36V9.48C101.972 9.61067 101.752 9.704 101.519 9.76C101.295 9.80667 101.02 9.84867 100.693 9.886C100.161 9.93267 99.6711 9.97 99.2231 9.998C98.7844 10.0167 98.3831 10.1193 98.0191 10.306C97.5524 10.5673 97.2211 10.9593 97.0251 11.482C96.8384 11.9953 96.7218 12.6067 96.6751 13.316C97.1604 12.196 98.0751 11.636 99.4191 11.636C99.8764 11.636 100.301 11.72 100.693 11.888C101.094 12.0467 101.44 12.2847 101.729 12.602C102.028 12.9193 102.261 13.3113 102.429 13.778C102.597 14.2353 102.681 14.7627 102.681 15.36ZM99.1531 18.034C99.4798 18.034 99.7784 17.9827 100.049 17.88C100.329 17.768 100.572 17.6047 100.777 17.39C100.982 17.166 101.141 16.886 101.253 16.55C101.365 16.214 101.421 15.8173 101.421 15.36C101.421 14.9027 101.365 14.506 101.253 14.17C101.141 13.834 100.982 13.5587 100.777 13.344C100.572 13.12 100.329 12.9567 100.049 12.854C99.7784 12.742 99.4798 12.686 99.1531 12.686C98.5091 12.686 97.9724 12.9007 97.5431 13.33C97.1231 13.7593 96.9131 14.422 96.9131 15.318C96.9131 15.7847 96.9691 16.1907 97.0811 16.536C97.1931 16.872 97.3471 17.152 97.5431 17.376C97.7484 17.6 97.9864 17.768 98.2571 17.88C98.5278 17.9827 98.8264 18.034 99.1531 18.034ZM107.205 19.14C106.71 19.14 106.248 19.056 105.819 18.888C105.39 18.72 105.016 18.4773 104.699 18.16C104.391 17.8333 104.148 17.4367 103.971 16.97C103.794 16.5033 103.705 15.9667 103.705 15.36C103.705 14.7627 103.794 14.2307 103.971 13.764C104.148 13.288 104.391 12.8913 104.699 12.574C105.016 12.2567 105.39 12.014 105.819 11.846C106.248 11.678 106.71 11.594 107.205 11.594C107.709 11.594 108.176 11.678 108.605 11.846C109.034 12.014 109.403 12.2567 109.711 12.574C110.028 12.8913 110.276 13.288 110.453 13.764C110.64 14.2307 110.733 14.7627 110.733 15.36C110.733 15.9667 110.64 16.5033 110.453 16.97C110.276 17.4367 110.028 17.8333 109.711 18.16C109.403 18.4773 109.034 18.72 108.605 18.888C108.176 19.056 107.709 19.14 107.205 19.14ZM107.205 18.034C107.532 18.034 107.83 17.9827 108.101 17.88C108.381 17.768 108.624 17.6047 108.829 17.39C109.034 17.166 109.193 16.886 109.305 16.55C109.417 16.214 109.473 15.8173 109.473 15.36C109.473 14.9027 109.417 14.506 109.305 14.17C109.193 13.834 109.034 13.5587 108.829 13.344C108.624 13.12 108.381 12.9567 108.101 12.854C107.83 12.742 107.532 12.686 107.205 12.686C106.878 12.686 106.58 12.742 106.309 12.854C106.038 12.9567 105.8 13.12 105.595 13.344C105.399 13.5587 105.245 13.834 105.133 14.17C105.021 14.506 104.965 14.9027 104.965 15.36C104.965 15.8173 105.021 16.214 105.133 16.55C105.245 16.886 105.399 17.166 105.595 17.39C105.8 17.6047 106.038 17.768 106.309 17.88C106.58 17.9827 106.878 18.034 107.205 18.034ZM115.889 19.14C115.329 19.14 114.843 19.0093 114.433 18.748C114.031 18.4867 113.709 18.1273 113.467 17.67V21.478H112.235V11.734H113.313L113.439 13.148C113.681 12.672 114.008 12.294 114.419 12.014C114.829 11.734 115.338 11.594 115.945 11.594C116.365 11.594 116.766 11.6733 117.149 11.832C117.541 11.9813 117.881 12.2147 118.171 12.532C118.469 12.84 118.703 13.232 118.871 13.708C119.048 14.1747 119.137 14.7253 119.137 15.36C119.137 16.004 119.048 16.564 118.871 17.04C118.693 17.5067 118.455 17.8987 118.157 18.216C117.858 18.524 117.513 18.7573 117.121 18.916C116.729 19.0653 116.318 19.14 115.889 19.14ZM115.707 18.034C116.351 18.034 116.869 17.8147 117.261 17.376C117.662 16.928 117.863 16.256 117.863 15.36C117.863 14.4827 117.662 13.82 117.261 13.372C116.869 12.9147 116.351 12.686 115.707 12.686C115.389 12.686 115.091 12.742 114.811 12.854C114.54 12.966 114.302 13.134 114.097 13.358C113.901 13.5727 113.742 13.848 113.621 14.184C113.509 14.52 113.453 14.912 113.453 15.36C113.453 15.808 113.509 16.2 113.621 16.536C113.742 16.872 113.901 17.152 114.097 17.376C114.302 17.6 114.54 17.768 114.811 17.88C115.091 17.9827 115.389 18.034 115.707 18.034Z" fill="#1D6BF3"/>
</svg>
