<svg width="12" height="14" viewBox="0 0 12 14" fill="none" xmlns="http://www.w3.org/2000/svg">
<path d="M6.47317 6.52659C6.40977 6.46589 6.335 6.41831 6.25317 6.38658C6.09086 6.31991 5.90881 6.31991 5.7465 6.38658C5.66467 6.41831 5.58991 6.46589 5.5265 6.52659L4.19317 7.85992C4.06763 7.98545 3.99711 8.15572 3.99711 8.33325C3.99711 8.51079 4.06763 8.68105 4.19317 8.80658C4.31871 8.93212 4.48897 9.00265 4.6665 9.00265C4.84404 9.00265 5.0143 8.93212 5.13984 8.80658L5.33317 8.60658V10.3333C5.33317 10.5101 5.40341 10.6796 5.52843 10.8047C5.65346 10.9297 5.82303 10.9999 5.99984 10.9999C6.17665 10.9999 6.34622 10.9297 6.47124 10.8047C6.59627 10.6796 6.6665 10.5101 6.6665 10.3333V8.60658L6.85984 8.80658C6.92181 8.86907 6.99555 8.91867 7.07679 8.95251C7.15803 8.98636 7.24516 9.00378 7.33317 9.00378C7.42118 9.00378 7.50832 8.98636 7.58956 8.95251C7.67079 8.91867 7.74453 8.86907 7.8065 8.80658C7.86899 8.74461 7.91859 8.67088 7.95243 8.58964C7.98628 8.5084 8.0037 8.42126 8.0037 8.33325C8.0037 8.24524 7.98628 8.15811 7.95243 8.07687C7.91859 7.99563 7.86899 7.92189 7.8065 7.85992L6.47317 6.52659ZM11.3332 4.95992C11.3262 4.89867 11.3128 4.83834 11.2932 4.77992V4.71992C11.2611 4.65137 11.2184 4.58836 11.1665 4.53325L7.1665 0.533252C7.11139 0.481396 7.04838 0.438639 6.97984 0.406585H6.91317C6.84835 0.371921 6.77868 0.3472 6.7065 0.333252H2.6665C2.13607 0.333252 1.62736 0.543966 1.25229 0.919038C0.877218 1.29411 0.666504 1.80282 0.666504 2.33325V11.6666C0.666504 12.197 0.877218 12.7057 1.25229 13.0808C1.62736 13.4559 2.13607 13.6666 2.6665 13.6666H9.33317C9.8636 13.6666 10.3723 13.4559 10.7474 13.0808C11.1225 12.7057 11.3332 12.197 11.3332 11.6666V4.99992C11.3332 4.99992 11.3332 4.99992 11.3332 4.95992ZM7.33317 2.60659L9.05984 4.33325H7.99984C7.82303 4.33325 7.65346 4.26301 7.52843 4.13799C7.40341 4.01297 7.33317 3.8434 7.33317 3.66658V2.60659ZM9.99984 11.6666C9.99984 11.8434 9.9296 12.013 9.80458 12.138C9.67955 12.263 9.50998 12.3333 9.33317 12.3333H2.6665C2.48969 12.3333 2.32012 12.263 2.1951 12.138C2.07008 12.013 1.99984 11.8434 1.99984 11.6666V2.33325C1.99984 2.15644 2.07008 1.98687 2.1951 1.86185C2.32012 1.73682 2.48969 1.66659 2.6665 1.66659H5.99984V3.66658C5.99984 4.19702 6.21055 4.70573 6.58562 5.0808C6.9607 5.45587 7.4694 5.66658 7.99984 5.66658H9.99984V11.6666Z" fill="white"/>
</svg>
