<svg width="16" height="16" viewBox="0 0 16 16" fill="none" xmlns="http://www.w3.org/2000/svg">
<g id="icon/edit" clip-path="url(#clip0_1524_5162)">
<path id="Vector" d="M14.6838 1.31693C14.2668 0.900592 13.7016 0.666748 13.1124 0.666748C12.5231 0.666748 11.958 0.900592 11.541 1.31693L1.56555 11.2924C1.27989 11.5764 1.05339 11.9143 0.899151 12.2865C0.744917 12.6586 0.666012 13.0577 0.667001 13.4606V14.7198C0.667001 14.8824 0.731622 15.0384 0.846646 15.1535C0.961671 15.2685 1.11768 15.3331 1.28035 15.3331H2.53954C2.94237 15.3342 3.34141 15.2555 3.71358 15.1013C4.08575 14.9472 4.42365 14.7208 4.70772 14.4352L14.6838 4.4591C15.0999 4.04215 15.3337 3.47711 15.3337 2.88802C15.3337 2.29892 15.0999 1.73389 14.6838 1.31693ZM3.84045 13.5679C3.49452 13.9115 3.02713 14.105 2.53954 14.1064H1.89369V13.4606C1.89307 13.2188 1.9404 12.9794 2.03294 12.7561C2.12549 12.5328 2.2614 12.3301 2.43282 12.1597L10.0033 4.58913L11.414 5.99982L3.84045 13.5679ZM13.8159 3.59183L12.2789 5.12949L10.8682 3.72186L12.4058 2.1842C12.4984 2.09178 12.6084 2.0185 12.7293 1.96856C12.8503 1.91861 12.9799 1.89298 13.1107 1.89312C13.2416 1.89327 13.3711 1.91918 13.4919 1.96939C13.6128 2.01959 13.7226 2.09311 13.815 2.18574C13.9074 2.27836 13.9807 2.38829 14.0306 2.50924C14.0806 2.63018 14.1062 2.75978 14.1061 2.89063C14.1059 3.02149 14.08 3.15103 14.0298 3.27187C13.9796 3.39271 13.9061 3.50247 13.8134 3.5949L13.8159 3.59183Z" fill="white"/>
</g>
<defs>
<clipPath id="clip0_1524_5162">
<rect width="16" height="16" fill="white"/>
</clipPath>
</defs>
</svg>
