<svg width="73" height="32" viewBox="0 0 73 32" fill="none" xmlns="http://www.w3.org/2000/svg">
<rect x="0.5" y="0.5" width="72" height="31" rx="5.5" stroke="#1D6BF3"/>
<g clip-path="url(#clip0_620_23282)">
<path d="M24.6667 9.33333H24V8.66667C24 8.48986 23.9298 8.32029 23.8047 8.19526C23.6797 8.07024 23.5101 8 23.3333 8C23.1565 8 22.987 8.07024 22.8619 8.19526C22.7369 8.32029 22.6667 8.48986 22.6667 8.66667V9.33333H17.3333V8.66667C17.3333 8.48986 17.2631 8.32029 17.1381 8.19526C17.013 8.07024 16.8435 8 16.6667 8C16.4899 8 16.3203 8.07024 16.1953 8.19526C16.0702 8.32029 16 8.48986 16 8.66667V9.33333H15.3333C14.4496 9.33439 13.6024 9.68592 12.9775 10.3108C12.3526 10.9357 12.0011 11.7829 12 12.6667L12 20.6667C12.0011 21.5504 12.3526 22.3976 12.9775 23.0225C13.6024 23.6474 14.4496 23.9989 15.3333 24H24.6667C25.5504 23.9989 26.3976 23.6474 27.0225 23.0225C27.6474 22.3976 27.9989 21.5504 28 20.6667V12.6667C27.9989 11.7829 27.6474 10.9357 27.0225 10.3108C26.3976 9.68592 25.5504 9.33439 24.6667 9.33333ZM13.3333 12.6667C13.3333 12.1362 13.544 11.6275 13.9191 11.2525C14.2942 10.8774 14.8029 10.6667 15.3333 10.6667H24.6667C25.1971 10.6667 25.7058 10.8774 26.0809 11.2525C26.456 11.6275 26.6667 12.1362 26.6667 12.6667V13.3333H13.3333V12.6667ZM24.6667 22.6667H15.3333C14.8029 22.6667 14.2942 22.456 13.9191 22.0809C13.544 21.7058 13.3333 21.1971 13.3333 20.6667V14.6667H26.6667V20.6667C26.6667 21.1971 26.456 21.7058 26.0809 22.0809C25.7058 22.456 25.1971 22.6667 24.6667 22.6667Z" fill="#1D6BF3"/>
<path d="M20 19C20.5523 19 21 18.5523 21 18C21 17.4477 20.5523 17 20 17C19.4477 17 19 17.4477 19 18C19 18.5523 19.4477 19 20 19Z" fill="#1D6BF3"/>
<path d="M16.6665 19C17.2188 19 17.6665 18.5523 17.6665 18C17.6665 17.4477 17.2188 17 16.6665 17C16.1142 17 15.6665 17.4477 15.6665 18C15.6665 18.5523 16.1142 19 16.6665 19Z" fill="#1D6BF3"/>
<path d="M23.3335 19C23.8858 19 24.3335 18.5523 24.3335 18C24.3335 17.4477 23.8858 17 23.3335 17C22.7812 17 22.3335 17.4477 22.3335 18C22.3335 18.5523 22.7812 19 23.3335 19Z" fill="#1D6BF3"/>
</g>
<path d="M39.2463 10.962H45.0983V12.166H40.5623V21H39.2463V10.962ZM48.7595 21.14C48.2649 21.14 47.8029 21.056 47.3735 20.888C46.9442 20.72 46.5709 20.4773 46.2535 20.16C45.9455 19.8333 45.7029 19.4367 45.5255 18.97C45.3482 18.5033 45.2595 17.9667 45.2595 17.36C45.2595 16.7627 45.3482 16.2307 45.5255 15.764C45.7029 15.288 45.9455 14.8913 46.2535 14.574C46.5709 14.2567 46.9442 14.014 47.3735 13.846C47.8029 13.678 48.2649 13.594 48.7595 13.594C49.2635 13.594 49.7302 13.678 50.1595 13.846C50.5889 14.014 50.9575 14.2567 51.2655 14.574C51.5829 14.8913 51.8302 15.288 52.0075 15.764C52.1942 16.2307 52.2875 16.7627 52.2875 17.36C52.2875 17.9667 52.1942 18.5033 52.0075 18.97C51.8302 19.4367 51.5829 19.8333 51.2655 20.16C50.9575 20.4773 50.5889 20.72 50.1595 20.888C49.7302 21.056 49.2635 21.14 48.7595 21.14ZM48.7595 20.034C49.0862 20.034 49.3849 19.9827 49.6555 19.88C49.9355 19.768 50.1782 19.6047 50.3835 19.39C50.5889 19.166 50.7475 18.886 50.8595 18.55C50.9715 18.214 51.0275 17.8173 51.0275 17.36C51.0275 16.9027 50.9715 16.506 50.8595 16.17C50.7475 15.834 50.5889 15.5587 50.3835 15.344C50.1782 15.12 49.9355 14.9567 49.6555 14.854C49.3849 14.742 49.0862 14.686 48.7595 14.686C48.4329 14.686 48.1342 14.742 47.8635 14.854C47.5929 14.9567 47.3549 15.12 47.1495 15.344C46.9535 15.5587 46.7995 15.834 46.6875 16.17C46.5755 16.506 46.5195 16.9027 46.5195 17.36C46.5195 17.8173 46.5755 18.214 46.6875 18.55C46.7995 18.886 46.9535 19.166 47.1495 19.39C47.3549 19.6047 47.5929 19.768 47.8635 19.88C48.1342 19.9827 48.4329 20.034 48.7595 20.034ZM53.3289 19.95C53.5902 19.7913 53.7956 19.544 53.9449 19.208C54.0942 18.872 54.2109 18.4473 54.2949 17.934C54.3789 17.4207 54.4349 16.814 54.4629 16.114C54.5002 15.414 54.5329 14.6207 54.5609 13.734H59.5589V19.95H60.6509V23.072H59.5729L59.4189 21H54.0149L53.8889 23.072H52.7829V19.95H53.3289ZM58.3269 19.95V14.784H55.6669C55.6202 16.156 55.5316 17.2573 55.4009 18.088C55.2796 18.9093 55.0649 19.53 54.7569 19.95H58.3269Z" fill="#1D6BF3"/>
<defs>
<clipPath id="clip0_620_23282">
<rect width="16" height="16" fill="white" transform="translate(12 8)"/>
</clipPath>
</defs>
</svg>
