<svg width="16" height="16" viewBox="0 0 16 16" fill="none" xmlns="http://www.w3.org/2000/svg">
<g clip-path="url(#clip0_31_1301)">
<path d="M14.6833 1.31693C14.2663 0.900592 13.7011 0.666748 13.1119 0.666748C12.5227 0.666748 11.9575 0.900592 11.5405 1.31693L1.56506 11.2924C1.2794 11.5764 1.0529 11.9143 0.898663 12.2865C0.744429 12.6586 0.665524 13.0577 0.666513 13.4606V14.7198C0.666513 14.8824 0.731133 15.0384 0.846158 15.1535C0.961182 15.2685 1.11719 15.3331 1.27986 15.3331H2.53906C2.94188 15.3342 3.34092 15.2555 3.71309 15.1013C4.08526 14.9472 4.42316 14.7208 4.70723 14.4352L14.6833 4.4591C15.0994 4.04215 15.3332 3.47711 15.3332 2.88802C15.3332 2.29892 15.0994 1.73389 14.6833 1.31693ZM3.83996 13.5679C3.49404 13.9115 3.02664 14.105 2.53906 14.1064H1.8932V13.4606C1.89258 13.2188 1.93991 12.9794 2.03246 12.7561C2.125 12.5328 2.26091 12.3301 2.43233 12.1597L10.0029 4.58913L11.4135 5.99982L3.83996 13.5679ZM13.8154 3.59183L12.2784 5.12949L10.8677 3.72186L12.4053 2.1842C12.498 2.09178 12.6079 2.0185 12.7288 1.96856C12.8498 1.91861 12.9794 1.89298 13.1102 1.89312C13.2411 1.89327 13.3706 1.91918 13.4915 1.96939C13.6123 2.01959 13.7221 2.09311 13.8145 2.18574C13.9069 2.27836 13.9802 2.38829 14.0301 2.50924C14.0801 2.63018 14.1057 2.75978 14.1056 2.89063C14.1054 3.02149 14.0795 3.15103 14.0293 3.27187C13.9791 3.39271 13.9056 3.50247 13.813 3.5949L13.8154 3.59183Z" fill="#1D6BF3"/>
</g>
<defs>
<clipPath id="clip0_31_1301">
<rect width="16" height="16" fill="white"/>
</clipPath>
</defs>
</svg>
