<svg width="40" height="32" viewBox="0 0 40 32" fill="none" xmlns="http://www.w3.org/2000/svg">
<rect width="40" height="32" rx="6" fill="#1D6BF3"/>
<path d="M23.9999 12C23.8749 11.875 23.7053 11.8048 23.5285 11.8048C23.3518 11.8048 23.1822 11.875 23.0572 12L19.9999 15.0573L16.9425 12C16.8175 11.875 16.648 11.8048 16.4712 11.8048C16.2944 11.8048 16.1249 11.875 15.9999 12C15.8749 12.125 15.8047 12.2946 15.8047 12.4713C15.8047 12.6481 15.8749 12.8176 15.9999 12.9427L19.0572 16L15.9999 19.0573C15.8749 19.1824 15.8047 19.3519 15.8047 19.5287C15.8047 19.7054 15.8749 19.875 15.9999 20C16.1249 20.125 16.2944 20.1952 16.4712 20.1952C16.648 20.1952 16.8175 20.125 16.9425 20L19.9999 16.9427L23.0572 20C23.1822 20.125 23.3518 20.1952 23.5285 20.1952C23.7053 20.1952 23.8749 20.125 23.9999 20C24.1249 19.875 24.1951 19.7054 24.1951 19.5287C24.1951 19.3519 24.1249 19.1824 23.9999 19.0573L20.9425 16L23.9999 12.9427C24.1249 12.8176 24.1951 12.6481 24.1951 12.4713C24.1951 12.2946 24.1249 12.125 23.9999 12Z" fill="white"/>
</svg>
