<svg width="132" height="32" viewBox="0 0 132 32" fill="none" xmlns="http://www.w3.org/2000/svg">
<rect x="0.5" y="0.5" width="131" height="31" rx="5.5" stroke="#1D6BF3"/>
<path d="M21.1234 15.988C21.1234 16.7907 21.002 17.514 20.7594 18.158C20.5167 18.7927 20.176 19.334 19.7374 19.782C19.2987 20.2207 18.7667 20.5567 18.1414 20.79C17.5254 21.0233 16.8394 21.14 16.0834 21.14C15.3647 21.14 14.744 21.0513 14.2214 20.874C13.708 20.6967 13.316 20.5007 13.0454 20.286V19.026C13.5027 19.362 13.974 19.6 14.4594 19.74C14.954 19.88 15.4627 19.95 15.9854 19.95C17.1334 19.95 18.0154 19.6653 18.6314 19.096C19.2567 18.5267 19.6067 17.6587 19.6814 16.492H14.9634V15.316H19.6674C19.5741 14.2147 19.2474 13.3933 18.6874 12.852C18.1274 12.3013 17.3107 12.026 16.2374 12.026C15.7147 12.026 15.1874 12.096 14.6554 12.236C14.1327 12.3667 13.6567 12.5627 13.2274 12.824V11.564C13.554 11.368 13.9694 11.2 14.4734 11.06C14.9774 10.9107 15.5607 10.836 16.2234 10.836C17.0074 10.836 17.7027 10.9527 18.3094 11.186C18.9254 11.4193 19.4387 11.76 19.8494 12.208C20.2694 12.6467 20.5867 13.1833 20.8014 13.818C21.016 14.4527 21.1234 15.176 21.1234 15.988ZM24.594 17.906H23.95V21H22.718V13.734H23.95V16.856H24.65L27.198 13.734H28.598L25.616 17.318L28.654 21H27.156L24.594 17.906ZM32.8129 21.14C32.2529 21.14 31.7443 21.056 31.2869 20.888C30.8389 20.7107 30.4563 20.4633 30.1389 20.146C29.8216 19.8193 29.5789 19.4227 29.4109 18.956C29.2429 18.4893 29.1589 17.9573 29.1589 17.36C29.1589 16.772 29.2429 16.2447 29.4109 15.778C29.5883 15.3113 29.8356 14.9193 30.1529 14.602C30.4703 14.2753 30.8576 14.028 31.3149 13.86C31.7723 13.6827 32.2903 13.594 32.8689 13.594C33.3169 13.594 33.7276 13.6453 34.1009 13.748C34.4743 13.8413 34.7823 13.9813 35.0249 14.168V15.274C34.7263 15.078 34.3903 14.9333 34.0169 14.84C33.6529 14.7373 33.2749 14.686 32.8829 14.686C32.0336 14.686 31.4083 14.9053 31.0069 15.344C30.6149 15.7827 30.4189 16.4547 30.4189 17.36C30.4189 18.2653 30.6103 18.9373 30.9929 19.376C31.3756 19.8147 31.9823 20.034 32.8129 20.034C33.2516 20.034 33.6529 19.9827 34.0169 19.88C34.3903 19.768 34.7263 19.628 35.0249 19.46V20.566C34.7636 20.7247 34.4463 20.86 34.0729 20.972C33.7089 21.084 33.2889 21.14 32.8129 21.14ZM36.6769 13.734H42.5009V21H41.2689V14.784H37.9089V21H36.6769V13.734ZM47.4929 21.14C46.9983 21.14 46.5363 21.056 46.1069 20.888C45.6776 20.72 45.3043 20.4773 44.9869 20.16C44.6789 19.8333 44.4363 19.4367 44.2589 18.97C44.0816 18.5033 43.9929 17.9667 43.9929 17.36C43.9929 16.7627 44.0816 16.2307 44.2589 15.764C44.4363 15.288 44.6789 14.8913 44.9869 14.574C45.3043 14.2567 45.6776 14.014 46.1069 13.846C46.5363 13.678 46.9983 13.594 47.4929 13.594C47.9969 13.594 48.4636 13.678 48.8929 13.846C49.3223 14.014 49.6909 14.2567 49.9989 14.574C50.3163 14.8913 50.5636 15.288 50.7409 15.764C50.9276 16.2307 51.0209 16.7627 51.0209 17.36C51.0209 17.9667 50.9276 18.5033 50.7409 18.97C50.5636 19.4367 50.3163 19.8333 49.9989 20.16C49.6909 20.4773 49.3223 20.72 48.8929 20.888C48.4636 21.056 47.9969 21.14 47.4929 21.14ZM47.4929 20.034C47.8196 20.034 48.1183 19.9827 48.3889 19.88C48.6689 19.768 48.9116 19.6047 49.1169 19.39C49.3223 19.166 49.4809 18.886 49.5929 18.55C49.7049 18.214 49.7609 17.8173 49.7609 17.36C49.7609 16.9027 49.7049 16.506 49.5929 16.17C49.4809 15.834 49.3223 15.5587 49.1169 15.344C48.9116 15.12 48.6689 14.9567 48.3889 14.854C48.1183 14.742 47.8196 14.686 47.4929 14.686C47.1663 14.686 46.8676 14.742 46.5969 14.854C46.3263 14.9567 46.0883 15.12 45.8829 15.344C45.6869 15.5587 45.5329 15.834 45.4209 16.17C45.3089 16.506 45.2529 16.9027 45.2529 17.36C45.2529 17.8173 45.3089 18.214 45.4209 18.55C45.5329 18.886 45.6869 19.166 45.8829 19.39C46.0883 19.6047 46.3263 19.768 46.5969 19.88C46.8676 19.9827 47.1663 20.034 47.4929 20.034ZM56.1766 21.14C55.6166 21.14 55.1313 21.0093 54.7206 20.748C54.3193 20.4867 53.9973 20.1273 53.7546 19.67V23.478H52.5226V13.734H53.6006L53.7266 15.148C53.9693 14.672 54.296 14.294 54.7066 14.014C55.1173 13.734 55.626 13.594 56.2326 13.594C56.6526 13.594 57.054 13.6733 57.4366 13.832C57.8286 13.9813 58.1693 14.2147 58.4586 14.532C58.7573 14.84 58.9906 15.232 59.1586 15.708C59.336 16.1747 59.4246 16.7253 59.4246 17.36C59.4246 18.004 59.336 18.564 59.1586 19.04C58.9813 19.5067 58.7433 19.8987 58.4446 20.216C58.146 20.524 57.8006 20.7573 57.4086 20.916C57.0166 21.0653 56.606 21.14 56.1766 21.14ZM55.9946 20.034C56.6386 20.034 57.1566 19.8147 57.5486 19.376C57.95 18.928 58.1506 18.256 58.1506 17.36C58.1506 16.4827 57.95 15.82 57.5486 15.372C57.1566 14.9147 56.6386 14.686 55.9946 14.686C55.6773 14.686 55.3786 14.742 55.0986 14.854C54.828 14.966 54.59 15.134 54.3846 15.358C54.1886 15.5727 54.03 15.848 53.9086 16.184C53.7966 16.52 53.7406 16.912 53.7406 17.36C53.7406 17.808 53.7966 18.2 53.9086 18.536C54.03 18.872 54.1886 19.152 54.3846 19.376C54.59 19.6 54.828 19.768 55.0986 19.88C55.3786 19.9827 55.6773 20.034 55.9946 20.034ZM63.7065 14.784V21H62.4745V14.784H60.1925V13.734H66.0305V14.784H63.7065ZM68.6843 19.32L72.5623 13.734H73.8083V21H72.5763V15.428L68.7123 21H67.4523V13.734H68.6843V19.32ZM79.4735 21.14C78.9135 21.14 78.4282 21.0093 78.0175 20.748C77.6162 20.4867 77.2942 20.1273 77.0515 19.67V23.478H75.8195V13.734H76.8975L77.0235 15.148C77.2662 14.672 77.5929 14.294 78.0035 14.014C78.4142 13.734 78.9229 13.594 79.5295 13.594C79.9495 13.594 80.3509 13.6733 80.7335 13.832C81.1255 13.9813 81.4662 14.2147 81.7555 14.532C82.0542 14.84 82.2875 15.232 82.4555 15.708C82.6329 16.1747 82.7215 16.7253 82.7215 17.36C82.7215 18.004 82.6329 18.564 82.4555 19.04C82.2782 19.5067 82.0402 19.8987 81.7415 20.216C81.4429 20.524 81.0975 20.7573 80.7055 20.916C80.3135 21.0653 79.9029 21.14 79.4735 21.14ZM79.2915 20.034C79.9355 20.034 80.4535 19.8147 80.8455 19.376C81.2469 18.928 81.4475 18.256 81.4475 17.36C81.4475 16.4827 81.2469 15.82 80.8455 15.372C80.4535 14.9147 79.9355 14.686 79.2915 14.686C78.9742 14.686 78.6755 14.742 78.3955 14.854C78.1249 14.966 77.8869 15.134 77.6815 15.358C77.4855 15.5727 77.3269 15.848 77.2055 16.184C77.0935 16.52 77.0375 16.912 77.0375 17.36C77.0375 17.808 77.0935 18.2 77.2055 18.536C77.3269 18.872 77.4855 19.152 77.6815 19.376C77.8869 19.6 78.1249 19.768 78.3955 19.88C78.6755 19.9827 78.9742 20.034 79.2915 20.034ZM87.1961 21.14C86.7014 21.14 86.2394 21.056 85.8101 20.888C85.3807 20.72 85.0074 20.4773 84.6901 20.16C84.3821 19.8333 84.1394 19.4367 83.9621 18.97C83.7847 18.5033 83.6961 17.9667 83.6961 17.36C83.6961 16.7627 83.7847 16.2307 83.9621 15.764C84.1394 15.288 84.3821 14.8913 84.6901 14.574C85.0074 14.2567 85.3807 14.014 85.8101 13.846C86.2394 13.678 86.7014 13.594 87.1961 13.594C87.7001 13.594 88.1667 13.678 88.5961 13.846C89.0254 14.014 89.3941 14.2567 89.7021 14.574C90.0194 14.8913 90.2667 15.288 90.4441 15.764C90.6307 16.2307 90.7241 16.7627 90.7241 17.36C90.7241 17.9667 90.6307 18.5033 90.4441 18.97C90.2667 19.4367 90.0194 19.8333 89.7021 20.16C89.3941 20.4773 89.0254 20.72 88.5961 20.888C88.1667 21.056 87.7001 21.14 87.1961 21.14ZM87.1961 20.034C87.5227 20.034 87.8214 19.9827 88.0921 19.88C88.3721 19.768 88.6147 19.6047 88.8201 19.39C89.0254 19.166 89.1841 18.886 89.2961 18.55C89.4081 18.214 89.4641 17.8173 89.4641 17.36C89.4641 16.9027 89.4081 16.506 89.2961 16.17C89.1841 15.834 89.0254 15.5587 88.8201 15.344C88.6147 15.12 88.3721 14.9567 88.0921 14.854C87.8214 14.742 87.5227 14.686 87.1961 14.686C86.8694 14.686 86.5707 14.742 86.3001 14.854C86.0294 14.9567 85.7914 15.12 85.5861 15.344C85.3901 15.5587 85.2361 15.834 85.1241 16.17C85.0121 16.506 84.9561 16.9027 84.9561 17.36C84.9561 17.8173 85.0121 18.214 85.1241 18.55C85.2361 18.886 85.3901 19.166 85.5861 19.39C85.7914 19.6047 86.0294 19.768 86.3001 19.88C86.5707 19.9827 86.8694 20.034 87.1961 20.034ZM92.2258 13.734H94.9418C95.8191 13.734 96.4818 13.888 96.9298 14.196C97.3778 14.4947 97.6018 14.966 97.6018 15.61C97.6018 16.0393 97.4898 16.3847 97.2658 16.646C97.0511 16.898 96.7431 17.08 96.3418 17.192C97.3778 17.36 97.8958 17.934 97.8958 18.914C97.8958 19.2873 97.8211 19.6093 97.6718 19.88C97.5224 20.1413 97.3171 20.356 97.0558 20.524C96.7944 20.692 96.4771 20.8133 96.1038 20.888C95.7398 20.9627 95.3431 21 94.9138 21H92.2258V13.734ZM93.4578 14.784V16.758H94.8298C95.2964 16.758 95.6698 16.674 95.9498 16.506C96.2391 16.338 96.3838 16.0953 96.3838 15.778C96.3838 15.3953 96.2578 15.134 96.0058 14.994C95.7538 14.854 95.3944 14.784 94.9278 14.784H93.4578ZM93.4578 17.738V19.95H94.8998C95.1611 19.95 95.3944 19.936 95.5998 19.908C95.8144 19.8707 95.9964 19.81 96.1458 19.726C96.3044 19.642 96.4258 19.53 96.5098 19.39C96.5938 19.25 96.6358 19.0773 96.6358 18.872C96.6358 18.452 96.4911 18.158 96.2018 17.99C95.9124 17.822 95.4784 17.738 94.8998 17.738H93.4578ZM104.001 19.614C103.917 19.782 103.81 19.9593 103.679 20.146C103.549 20.3233 103.385 20.4867 103.189 20.636C102.993 20.7853 102.76 20.9067 102.489 21C102.228 21.0933 101.92 21.14 101.565 21.14C100.912 21.14 100.385 20.958 99.9833 20.594C99.582 20.2207 99.3813 19.6887 99.3813 18.998C99.3813 18.2047 99.6566 17.6213 100.207 17.248C100.767 16.8747 101.561 16.688 102.587 16.688H103.945V16.086C103.945 15.582 103.815 15.2227 103.553 15.008C103.292 14.7933 102.844 14.686 102.209 14.686C101.761 14.686 101.337 14.7607 100.935 14.91C100.534 15.05 100.175 15.2133 99.8573 15.4V14.294C100.119 14.1353 100.469 13.9813 100.907 13.832C101.355 13.6733 101.845 13.594 102.377 13.594C103.292 13.594 103.987 13.7853 104.463 14.168C104.939 14.5413 105.177 15.1247 105.177 15.918V19.824C105.177 19.908 105.177 20.006 105.177 20.118C105.187 20.2207 105.191 20.328 105.191 20.44C105.201 20.552 105.21 20.6593 105.219 20.762C105.229 20.8553 105.238 20.9347 105.247 21H104.127C104.099 20.8693 104.071 20.6873 104.043 20.454C104.025 20.2113 104.015 20.0013 104.015 19.824L104.001 19.614ZM101.831 20.034C102.214 20.034 102.541 19.9547 102.811 19.796C103.082 19.6373 103.301 19.4553 103.469 19.25C103.637 19.0353 103.759 18.83 103.833 18.634C103.908 18.4287 103.945 18.284 103.945 18.2V17.668H102.713C101.976 17.668 101.439 17.7753 101.103 17.99C100.777 18.1953 100.613 18.508 100.613 18.928C100.613 19.2547 100.711 19.5207 100.907 19.726C101.103 19.9313 101.411 20.034 101.831 20.034ZM109.972 14.784V21H108.74V14.784H106.458V13.734H112.296V14.784H109.972ZM119.122 18.578C119.122 18.998 119.047 19.362 118.898 19.67C118.749 19.978 118.539 20.23 118.268 20.426C117.997 20.622 117.675 20.7667 117.302 20.86C116.929 20.9533 116.523 21 116.084 21H113.676V13.734H114.908V16.268H116.168C117.092 16.268 117.815 16.45 118.338 16.814C118.861 17.178 119.122 17.766 119.122 18.578ZM114.908 17.318V19.95H116.084C116.616 19.95 117.045 19.852 117.372 19.656C117.708 19.4507 117.876 19.1147 117.876 18.648C117.876 18.172 117.727 17.8313 117.428 17.626C117.129 17.4207 116.709 17.318 116.168 17.318H114.908Z" fill="#1D6BF3"/>
</svg>
