<svg width="155" height="48" viewBox="0 0 155 48" fill="none" xmlns="http://www.w3.org/2000/svg">
<g clip-path="url(#clip0_729_1920)">
<rect width="155" height="48" rx="8" fill="#CFCFCF"/>
<mask id="path-2-outside-1_729_1920" maskUnits="userSpaceOnUse" x="20" y="8" width="115" height="33" fill="black">
<rect fill="white" x="20" y="8" width="115" height="33"/>
<path d="M21.2305 39V9.90909H29.1282V32.6364H40.8896V39H21.2305ZM71.131 24.4545C71.131 27.6932 70.5013 30.4252 69.2418 32.6506C67.9824 34.8665 66.2826 36.5473 64.1424 37.6932C62.0022 38.8295 59.6159 39.3977 56.9833 39.3977C54.3318 39.3977 51.936 38.8248 49.7958 37.679C47.6651 36.5237 45.9701 34.8381 44.7106 32.6222C43.4606 30.3968 42.8356 27.6742 42.8356 24.4545C42.8356 21.2159 43.4606 18.4886 44.7106 16.2727C45.9701 14.0473 47.6651 12.3665 49.7958 11.2301C51.936 10.0843 54.3318 9.51136 56.9833 9.51136C59.6159 9.51136 62.0022 10.0843 64.1424 11.2301C66.2826 12.3665 67.9824 14.0473 69.2418 16.2727C70.5013 18.4886 71.131 21.2159 71.131 24.4545ZM63.006 24.4545C63.006 22.7121 62.774 21.2443 62.31 20.0511C61.8555 18.8485 61.1784 17.9394 60.2788 17.3239C59.3886 16.6989 58.2901 16.3864 56.9833 16.3864C55.6765 16.3864 54.5733 16.6989 53.6737 17.3239C52.7835 17.9394 52.1064 18.8485 51.6424 20.0511C51.1879 21.2443 50.9606 22.7121 50.9606 24.4545C50.9606 26.197 51.1879 27.6695 51.6424 28.8722C52.1064 30.0653 52.7835 30.9744 53.6737 31.5994C54.5733 32.215 55.6765 32.5227 56.9833 32.5227C58.2901 32.5227 59.3886 32.215 60.2788 31.5994C61.1784 30.9744 61.8555 30.0653 62.31 28.8722C62.774 27.6695 63.006 26.197 63.006 24.4545ZM93.6772 19.5114C93.5541 19.0095 93.36 18.5691 93.0948 18.1903C92.8297 17.8021 92.4982 17.4754 92.1005 17.2102C91.7122 16.9356 91.2577 16.732 90.7369 16.5994C90.2255 16.4574 89.6621 16.3864 89.0465 16.3864C87.7208 16.3864 86.5891 16.7036 85.6516 17.3381C84.7236 17.9725 84.0134 18.8864 83.521 20.0795C83.038 21.2727 82.7965 22.7121 82.7965 24.3977C82.7965 26.1023 83.0285 27.5606 83.4925 28.7727C83.9566 29.9848 84.6478 30.9129 85.5664 31.5568C86.485 32.2008 87.6261 32.5227 88.9897 32.5227C90.1924 32.5227 91.1914 32.3475 91.9869 31.9972C92.7918 31.6468 93.3931 31.1496 93.7908 30.5057C94.1886 29.8617 94.3874 29.1042 94.3874 28.233L95.7511 28.375H89.1033V22.75H102.001V26.7841C102.001 29.4356 101.438 31.7036 100.311 33.5881C99.1933 35.4631 97.6497 36.9025 95.68 37.9062C93.7198 38.9006 91.4708 39.3977 88.9329 39.3977C86.1014 39.3977 83.6156 38.7964 81.4755 37.5938C79.3353 36.3911 77.6639 34.6771 76.4613 32.4517C75.2681 30.2263 74.6715 27.5795 74.6715 24.5114C74.6715 22.1061 75.0361 19.9754 75.7653 18.1193C76.5039 16.2633 77.5266 14.696 78.8335 13.4176C80.1403 12.1297 81.6507 11.1591 83.3647 10.5057C85.0787 9.8428 86.9158 9.51136 88.8761 9.51136C90.5996 9.51136 92.1999 9.75758 93.6772 10.25C95.1639 10.733 96.4755 11.4242 97.6119 12.3239C98.7577 13.214 99.681 14.2699 100.382 15.4915C101.083 16.7131 101.509 18.053 101.66 19.5114H93.6772ZM133.865 24.4545C133.865 27.6932 133.236 30.4252 131.976 32.6506C130.717 34.8665 129.017 36.5473 126.877 37.6932C124.737 38.8295 122.35 39.3977 119.718 39.3977C117.066 39.3977 114.67 38.8248 112.53 37.679C110.4 36.5237 108.704 34.8381 107.445 32.6222C106.195 30.3968 105.57 27.6742 105.57 24.4545C105.57 21.2159 106.195 18.4886 107.445 16.2727C108.704 14.0473 110.4 12.3665 112.53 11.2301C114.67 10.0843 117.066 9.51136 119.718 9.51136C122.35 9.51136 124.737 10.0843 126.877 11.2301C129.017 12.3665 130.717 14.0473 131.976 16.2727C133.236 18.4886 133.865 21.2159 133.865 24.4545ZM125.74 24.4545C125.74 22.7121 125.508 21.2443 125.044 20.0511C124.59 18.8485 123.913 17.9394 123.013 17.3239C122.123 16.6989 121.025 16.3864 119.718 16.3864C118.411 16.3864 117.308 16.6989 116.408 17.3239C115.518 17.9394 114.841 18.8485 114.377 20.0511C113.922 21.2443 113.695 22.7121 113.695 24.4545C113.695 26.197 113.922 27.6695 114.377 28.8722C114.841 30.0653 115.518 30.9744 116.408 31.5994C117.308 32.215 118.411 32.5227 119.718 32.5227C121.025 32.5227 122.123 32.215 123.013 31.5994C123.913 30.9744 124.59 30.0653 125.044 28.8722C125.508 27.6695 125.74 26.197 125.74 24.4545Z"/>
</mask>
<path d="M21.2305 39V9.90909H29.1282V32.6364H40.8896V39H21.2305ZM71.131 24.4545C71.131 27.6932 70.5013 30.4252 69.2418 32.6506C67.9824 34.8665 66.2826 36.5473 64.1424 37.6932C62.0022 38.8295 59.6159 39.3977 56.9833 39.3977C54.3318 39.3977 51.936 38.8248 49.7958 37.679C47.6651 36.5237 45.9701 34.8381 44.7106 32.6222C43.4606 30.3968 42.8356 27.6742 42.8356 24.4545C42.8356 21.2159 43.4606 18.4886 44.7106 16.2727C45.9701 14.0473 47.6651 12.3665 49.7958 11.2301C51.936 10.0843 54.3318 9.51136 56.9833 9.51136C59.6159 9.51136 62.0022 10.0843 64.1424 11.2301C66.2826 12.3665 67.9824 14.0473 69.2418 16.2727C70.5013 18.4886 71.131 21.2159 71.131 24.4545ZM63.006 24.4545C63.006 22.7121 62.774 21.2443 62.31 20.0511C61.8555 18.8485 61.1784 17.9394 60.2788 17.3239C59.3886 16.6989 58.2901 16.3864 56.9833 16.3864C55.6765 16.3864 54.5733 16.6989 53.6737 17.3239C52.7835 17.9394 52.1064 18.8485 51.6424 20.0511C51.1879 21.2443 50.9606 22.7121 50.9606 24.4545C50.9606 26.197 51.1879 27.6695 51.6424 28.8722C52.1064 30.0653 52.7835 30.9744 53.6737 31.5994C54.5733 32.215 55.6765 32.5227 56.9833 32.5227C58.2901 32.5227 59.3886 32.215 60.2788 31.5994C61.1784 30.9744 61.8555 30.0653 62.31 28.8722C62.774 27.6695 63.006 26.197 63.006 24.4545ZM93.6772 19.5114C93.5541 19.0095 93.36 18.5691 93.0948 18.1903C92.8297 17.8021 92.4982 17.4754 92.1005 17.2102C91.7122 16.9356 91.2577 16.732 90.7369 16.5994C90.2255 16.4574 89.6621 16.3864 89.0465 16.3864C87.7208 16.3864 86.5891 16.7036 85.6516 17.3381C84.7236 17.9725 84.0134 18.8864 83.521 20.0795C83.038 21.2727 82.7965 22.7121 82.7965 24.3977C82.7965 26.1023 83.0285 27.5606 83.4925 28.7727C83.9566 29.9848 84.6478 30.9129 85.5664 31.5568C86.485 32.2008 87.6261 32.5227 88.9897 32.5227C90.1924 32.5227 91.1914 32.3475 91.9869 31.9972C92.7918 31.6468 93.3931 31.1496 93.7908 30.5057C94.1886 29.8617 94.3874 29.1042 94.3874 28.233L95.7511 28.375H89.1033V22.75H102.001V26.7841C102.001 29.4356 101.438 31.7036 100.311 33.5881C99.1933 35.4631 97.6497 36.9025 95.68 37.9062C93.7198 38.9006 91.4708 39.3977 88.9329 39.3977C86.1014 39.3977 83.6156 38.7964 81.4755 37.5938C79.3353 36.3911 77.6639 34.6771 76.4613 32.4517C75.2681 30.2263 74.6715 27.5795 74.6715 24.5114C74.6715 22.1061 75.0361 19.9754 75.7653 18.1193C76.5039 16.2633 77.5266 14.696 78.8335 13.4176C80.1403 12.1297 81.6507 11.1591 83.3647 10.5057C85.0787 9.8428 86.9158 9.51136 88.8761 9.51136C90.5996 9.51136 92.1999 9.75758 93.6772 10.25C95.1639 10.733 96.4755 11.4242 97.6119 12.3239C98.7577 13.214 99.681 14.2699 100.382 15.4915C101.083 16.7131 101.509 18.053 101.66 19.5114H93.6772ZM133.865 24.4545C133.865 27.6932 133.236 30.4252 131.976 32.6506C130.717 34.8665 129.017 36.5473 126.877 37.6932C124.737 38.8295 122.35 39.3977 119.718 39.3977C117.066 39.3977 114.67 38.8248 112.53 37.679C110.4 36.5237 108.704 34.8381 107.445 32.6222C106.195 30.3968 105.57 27.6742 105.57 24.4545C105.57 21.2159 106.195 18.4886 107.445 16.2727C108.704 14.0473 110.4 12.3665 112.53 11.2301C114.67 10.0843 117.066 9.51136 119.718 9.51136C122.35 9.51136 124.737 10.0843 126.877 11.2301C129.017 12.3665 130.717 14.0473 131.976 16.2727C133.236 18.4886 133.865 21.2159 133.865 24.4545ZM125.74 24.4545C125.74 22.7121 125.508 21.2443 125.044 20.0511C124.59 18.8485 123.913 17.9394 123.013 17.3239C122.123 16.6989 121.025 16.3864 119.718 16.3864C118.411 16.3864 117.308 16.6989 116.408 17.3239C115.518 17.9394 114.841 18.8485 114.377 20.0511C113.922 21.2443 113.695 22.7121 113.695 24.4545C113.695 26.197 113.922 27.6695 114.377 28.8722C114.841 30.0653 115.518 30.9744 116.408 31.5994C117.308 32.215 118.411 32.5227 119.718 32.5227C121.025 32.5227 122.123 32.215 123.013 31.5994C123.913 30.9744 124.59 30.0653 125.044 28.8722C125.508 27.6695 125.74 26.197 125.74 24.4545Z" fill="#D8D8D8"/>
<path d="M21.2305 39H20.2305V40H21.2305V39ZM21.2305 9.90909V8.90909H20.2305V9.90909H21.2305ZM29.1282 9.90909H30.1282V8.90909H29.1282V9.90909ZM29.1282 32.6364H28.1282V33.6364H29.1282V32.6364ZM40.8896 32.6364H41.8896V31.6364H40.8896V32.6364ZM40.8896 39V40H41.8896V39H40.8896ZM22.2305 39V9.90909H20.2305V39H22.2305ZM21.2305 10.9091H29.1282V8.90909H21.2305V10.9091ZM28.1282 9.90909V32.6364H30.1282V9.90909H28.1282ZM29.1282 33.6364H40.8896V31.6364H29.1282V33.6364ZM39.8896 32.6364V39H41.8896V32.6364H39.8896ZM40.8896 38H21.2305V40H40.8896V38ZM69.2418 32.6506L70.1112 33.1447L70.1121 33.1431L69.2418 32.6506ZM64.1424 37.6932L64.6114 38.5764L64.6144 38.5748L64.1424 37.6932ZM49.7958 37.679L49.3191 38.5581L49.3238 38.5606L49.7958 37.679ZM44.7106 32.6222L43.8387 33.1119L43.8412 33.1163L44.7106 32.6222ZM44.7106 16.2727L43.8403 15.7802L43.8396 15.7814L44.7106 16.2727ZM49.7958 11.2301L50.2664 12.1125L50.2678 12.1117L49.7958 11.2301ZM64.1424 11.2301L63.6704 12.1117L63.6734 12.1133L64.1424 11.2301ZM69.2418 16.2727L68.3715 16.7653L68.3725 16.7669L69.2418 16.2727ZM62.31 20.0511L61.3746 20.4047L61.378 20.4136L62.31 20.0511ZM60.2788 17.3239L59.7041 18.1423L59.7141 18.1492L60.2788 17.3239ZM53.6737 17.3239L54.2424 18.1464L54.2442 18.1451L53.6737 17.3239ZM51.6424 20.0511L50.7094 19.6912L50.7079 19.6951L51.6424 20.0511ZM51.6424 28.8722L50.7069 29.2257L50.7104 29.2346L51.6424 28.8722ZM53.6737 31.5994L53.099 32.4179L53.109 32.4247L53.6737 31.5994ZM60.2788 31.5994L60.8475 32.4219L60.8493 32.4207L60.2788 31.5994ZM62.31 28.8722L61.377 28.5122L61.3755 28.5162L62.31 28.8722ZM70.131 24.4545C70.131 27.5657 69.5262 30.1178 68.3715 32.158L70.1121 33.1431C71.4764 30.7325 72.131 27.8206 72.131 24.4545H70.131ZM68.3725 32.1564C67.2013 34.2169 65.6357 35.7594 63.6704 36.8116L64.6144 38.5748C66.9294 37.3353 68.7634 35.5161 70.1112 33.1447L68.3725 32.1564ZM63.6734 36.81C61.69 37.8631 59.4668 38.3977 56.9833 38.3977V40.3977C59.7649 40.3977 62.3145 39.796 64.6114 38.5764L63.6734 36.81ZM56.9833 38.3977C54.4809 38.3977 52.2497 37.8585 50.2678 36.7974L49.3238 38.5606C51.6222 39.7912 54.1826 40.3977 56.9833 40.3977V38.3977ZM50.2725 36.7999C48.3148 35.7384 46.7521 34.1902 45.58 32.128L43.8412 33.1163C45.188 35.4859 47.0155 37.309 49.3191 38.5581L50.2725 36.7999ZM45.5825 32.1324C44.4357 30.0908 43.8356 27.5468 43.8356 24.4545H41.8356C41.8356 27.8017 42.4855 30.7027 43.8387 33.1119L45.5825 32.1324ZM43.8356 24.4545C43.8356 21.342 44.4362 18.7944 45.5816 16.764L43.8396 15.7814C42.485 18.1828 41.8356 21.0898 41.8356 24.4545H43.8356ZM45.5809 16.7653C46.7526 14.6949 48.3133 13.1541 50.2664 12.1125L49.3252 10.3478C47.017 11.5788 45.1875 13.3998 43.8403 15.7802L45.5809 16.7653ZM50.2678 12.1117C52.2497 11.0506 54.4809 10.5114 56.9833 10.5114V8.51136C54.1826 8.51136 51.6222 9.11793 49.3238 10.3485L50.2678 12.1117ZM56.9833 10.5114C59.4655 10.5114 61.6875 11.0501 63.6704 12.1117L64.6144 10.3485C62.317 9.11849 59.7663 8.51136 56.9833 8.51136V10.5114ZM63.6734 12.1133C65.6358 13.1553 67.2005 14.6961 68.3715 16.7653L70.1121 15.7802C68.7643 13.3986 66.9293 11.5776 64.6114 10.3469L63.6734 12.1133ZM68.3725 16.7669C69.5261 18.7966 70.131 21.3431 70.131 24.4545H72.131C72.131 21.0887 71.4765 18.1806 70.1112 15.7786L68.3725 16.7669ZM64.006 24.4545C64.006 22.63 63.764 21.0309 63.242 19.6887L61.378 20.4136C61.7841 21.4577 62.006 22.7942 62.006 24.4545H64.006ZM63.2454 19.6976C62.7318 18.3387 61.9407 17.2493 60.8434 16.4986L59.7141 18.1492C60.4161 18.6295 60.9791 19.3583 61.3746 20.4047L63.2454 19.6976ZM60.8534 16.5054C59.7634 15.7401 58.4535 15.3864 56.9833 15.3864V17.3864C58.1267 17.3864 59.0139 17.6576 59.7041 18.1423L60.8534 16.5054ZM56.9833 15.3864C55.5127 15.3864 54.2005 15.7402 53.1031 16.5026L54.2442 18.1451C54.9461 17.6575 55.8403 17.3864 56.9833 17.3864V15.3864ZM53.1049 16.5014C52.0202 17.2514 51.2316 18.3378 50.7094 19.6912L52.5754 20.4111C52.9812 19.3592 53.5468 18.6274 54.2424 18.1464L53.1049 16.5014ZM50.7079 19.6951C50.1974 21.0352 49.9606 22.6319 49.9606 24.4545H51.9606C51.9606 22.7924 52.1783 21.4535 52.5769 20.4071L50.7079 19.6951ZM49.9606 24.4545C49.9606 26.2776 50.1975 27.8778 50.707 29.2257L52.5778 28.5186C52.1782 27.4612 51.9606 26.1163 51.9606 24.4545H49.9606ZM50.7104 29.2346C51.233 30.5785 52.0205 31.6606 53.099 32.4178L54.2483 30.781C53.5465 30.2883 52.9798 29.5522 52.5744 28.5097L50.7104 29.2346ZM53.109 32.4247C54.2057 33.1751 55.5158 33.5227 56.9833 33.5227V31.5227C55.8372 31.5227 54.9409 31.2548 54.2383 30.7741L53.109 32.4247ZM56.9833 33.5227C58.4505 33.5227 59.7581 33.1752 60.8475 32.4219L59.71 30.7769C59.0191 31.2547 58.1298 31.5227 56.9833 31.5227V33.5227ZM60.8493 32.4207C61.9404 31.6627 62.7305 30.5775 63.2445 29.2282L61.3755 28.5162C60.9805 29.5532 60.4164 30.2862 59.7082 30.7782L60.8493 32.4207ZM63.243 29.2321C63.7639 27.882 64.006 26.2795 64.006 24.4545H62.006C62.006 26.1145 61.7842 27.457 61.377 28.5122L63.243 29.2321ZM93.6772 19.5114L92.706 19.7496L92.8928 20.5114H93.6772V19.5114ZM93.0948 18.1903L92.269 18.7543L92.2756 18.7638L93.0948 18.1903ZM92.1005 17.2102L91.523 18.0266L91.5343 18.0346L91.5458 18.0423L92.1005 17.2102ZM90.7369 16.5994L90.4692 17.5629L90.4797 17.5659L90.4902 17.5685L90.7369 16.5994ZM85.6516 17.3381L85.0911 16.5099L85.0872 16.5126L85.6516 17.3381ZM83.521 20.0795L82.5966 19.698L82.594 19.7044L83.521 20.0795ZM83.4925 28.7727L82.5586 29.1302L83.4925 28.7727ZM85.5664 31.5568L84.9924 32.3757L85.5664 31.5568ZM91.9869 31.9972L91.5877 31.0803L91.5838 31.082L91.9869 31.9972ZM93.7908 30.5057L92.94 29.9802L93.7908 30.5057ZM94.3874 28.233L94.491 27.2383L93.3874 27.1234V28.233H94.3874ZM95.7511 28.375V29.375L95.8547 27.3804L95.7511 28.375ZM89.1033 28.375H88.1033V29.375H89.1033V28.375ZM89.1033 22.75V21.75H88.1033V22.75H89.1033ZM102.001 22.75H103.001V21.75H102.001V22.75ZM100.311 33.5881L99.4525 33.0748L99.4517 33.0761L100.311 33.5881ZM95.68 37.9062L96.1324 38.7981L96.1341 38.7972L95.68 37.9062ZM81.4755 37.5938L80.9856 38.4655L81.4755 37.5938ZM76.4613 32.4517L75.58 32.9242L75.5815 32.9271L76.4613 32.4517ZM75.7653 18.1193L74.8361 17.7496L74.8345 17.7537L75.7653 18.1193ZM78.8335 13.4176L79.5328 14.1325L79.5354 14.1299L78.8335 13.4176ZM83.3647 10.5057L83.7209 11.4401L83.7254 11.4384L83.3647 10.5057ZM93.6772 10.25L93.361 11.1987L93.3683 11.2011L93.6772 10.25ZM97.6119 12.3239L96.9911 13.1079L96.9984 13.1136L97.6119 12.3239ZM100.382 15.4915L101.249 14.9939L100.382 15.4915ZM101.66 19.5114V20.5114H102.769L102.655 19.408L101.66 19.5114ZM94.6484 19.2731C94.4993 18.6651 94.258 18.1083 93.914 17.6169L92.2756 18.7638C92.4619 19.03 92.6089 19.3538 92.706 19.7496L94.6484 19.2731ZM93.9206 17.6264C93.5819 17.1304 93.1578 16.7133 92.6552 16.3782L91.5458 18.0423C91.8386 18.2375 92.0774 18.4738 92.269 18.7543L93.9206 17.6264ZM92.678 16.3938C92.1776 16.0399 91.6077 15.7892 90.9835 15.6303L90.4902 17.5685C90.9077 17.6748 91.2469 17.8313 91.523 18.0266L92.678 16.3938ZM91.0045 15.6359C90.3934 15.4662 89.7384 15.3864 89.0465 15.3864V17.3864C89.5857 17.3864 90.0576 17.4486 90.4692 17.5629L91.0045 15.6359ZM89.0465 15.3864C87.556 15.3864 86.2209 15.7453 85.0912 16.5099L86.2121 18.1662C86.9573 17.6619 87.8855 17.3864 89.0465 17.3864V15.3864ZM85.0872 16.5126C83.9758 17.2724 83.1519 18.3524 82.5966 19.6981L84.4453 20.461C84.8748 19.4204 85.4714 18.6726 86.216 18.1636L85.0872 16.5126ZM82.594 19.7044C82.0504 21.0474 81.7965 22.6213 81.7965 24.3977H83.7965C83.7965 22.8029 84.0256 21.4981 84.4479 20.4547L82.594 19.7044ZM81.7965 24.3977C81.7965 26.1882 82.0396 27.7744 82.5586 29.1302L84.4265 28.4152C84.0174 27.3468 83.7965 26.0163 83.7965 24.3977H81.7965ZM82.5586 29.1302C83.0824 30.4985 83.8861 31.6001 84.9924 32.3757L86.1404 30.738C85.4096 30.2257 84.8307 29.4712 84.4265 28.4152L82.5586 29.1302ZM84.9924 32.3757C86.1126 33.1609 87.4657 33.5227 88.9897 33.5227V31.5227C87.7865 31.5227 86.8574 31.2406 86.1404 30.738L84.9924 32.3757ZM88.9897 33.5227C90.2813 33.5227 91.4287 33.3357 92.39 32.9123L91.5838 31.082C90.9541 31.3593 90.1034 31.5227 88.9897 31.5227V33.5227ZM92.386 32.9141C93.3471 32.4957 94.1204 31.8751 94.6416 31.0312L92.94 29.9802C92.6658 30.4241 92.2365 30.7979 91.5877 31.0803L92.386 32.9141ZM94.6416 31.0312C95.1509 30.2066 95.3874 29.2612 95.3874 28.233H93.3874C93.3874 28.9472 93.2262 29.5169 92.94 29.9802L94.6416 31.0312ZM94.2838 29.2276L95.6475 29.3696L95.8547 27.3804L94.491 27.2383L94.2838 29.2276ZM95.7511 27.375H89.1033V29.375H95.7511V27.375ZM90.1033 28.375V22.75H88.1033V28.375H90.1033ZM89.1033 23.75H102.001V21.75H89.1033V23.75ZM101.001 22.75V26.7841H103.001V22.75H101.001ZM101.001 26.7841C101.001 29.2925 100.469 31.3749 99.4525 33.0748L101.169 34.1013C102.406 32.0323 103.001 29.5787 103.001 26.7841H101.001ZM99.4517 33.0761C98.4321 34.7869 97.0299 36.096 95.226 37.0153L96.1341 38.7972C98.2695 37.709 99.9545 36.1392 101.17 34.1L99.4517 33.0761ZM95.2277 37.0144C93.4279 37.9274 91.3379 38.3977 88.9329 38.3977V40.3977C91.6036 40.3977 94.0118 39.8738 96.1324 38.7981L95.2277 37.0144ZM88.9329 38.3977C86.2464 38.3977 83.9344 37.8284 81.9654 36.722L80.9856 38.4655C83.2969 39.7644 85.9565 40.3977 88.9329 40.3977V38.3977ZM81.9654 36.722C79.9952 35.6149 78.4567 34.0407 77.341 31.9763L75.5815 32.9271C76.8712 35.3135 78.6754 37.1673 80.9856 38.4655L81.9654 36.722ZM77.3426 31.9792C76.2424 29.9272 75.6715 27.4498 75.6715 24.5114H73.6715C73.6715 27.7093 74.2938 30.5254 75.58 32.9242L77.3426 31.9792ZM75.6715 24.5114C75.6715 22.2061 76.021 20.2032 76.696 18.485L74.8345 17.7537C74.0512 19.7475 73.6715 22.0061 73.6715 24.5114H75.6715ZM76.6944 18.4891C77.3862 16.7507 78.3347 15.3044 79.5327 14.1324L78.1342 12.7028C76.7185 14.0876 75.6216 15.7758 74.8361 17.7496L76.6944 18.4891ZM79.5354 14.1299C80.7436 12.9391 82.1363 12.0442 83.7209 11.4401L83.0085 9.57127C81.1651 10.274 79.5369 11.3203 78.1315 12.7054L79.5354 14.1299ZM83.7254 11.4384C85.3169 10.8229 87.0309 10.5114 88.8761 10.5114V8.51136C86.8008 8.51136 84.8406 8.86273 83.004 9.573L83.7254 11.4384ZM88.8761 10.5114C90.5035 10.5114 91.9959 10.7437 93.361 11.1987L93.9934 9.30132C92.4039 8.77148 90.6956 8.51136 88.8761 8.51136V10.5114ZM93.3683 11.2011C94.7509 11.6502 95.955 12.2876 96.9912 13.1079L98.2326 11.5398C96.996 10.5608 95.577 9.81569 93.9862 9.29892L93.3683 11.2011ZM96.9984 13.1136C98.0445 13.9263 98.8804 14.8839 99.5143 15.9891L101.249 14.9939C100.482 13.6559 99.4709 12.5017 98.2253 11.5342L96.9984 13.1136ZM99.5143 15.9891C100.143 17.0846 100.528 18.2894 100.666 19.6147L102.655 19.408C102.489 17.8167 102.022 16.3416 101.249 14.9939L99.5143 15.9891ZM101.66 18.5114H93.6772V20.5114H101.66V18.5114ZM131.976 32.6506L132.846 33.1447L132.846 33.1431L131.976 32.6506ZM126.877 37.6932L127.346 38.5764L127.349 38.5748L126.877 37.6932ZM112.53 37.679L112.054 38.5581L112.058 38.5606L112.53 37.679ZM107.445 32.6222L106.573 33.1119L106.576 33.1163L107.445 32.6222ZM107.445 16.2727L106.575 15.7802L106.574 15.7814L107.445 16.2727ZM112.53 11.2301L113.001 12.1125L113.002 12.1117L112.53 11.2301ZM126.877 11.2301L126.405 12.1117L126.408 12.1133L126.877 11.2301ZM131.976 16.2727L131.106 16.7653L131.107 16.7669L131.976 16.2727ZM125.044 20.0511L124.109 20.4047L124.112 20.4136L125.044 20.0511ZM123.013 17.3239L122.438 18.1423L122.448 18.1492L123.013 17.3239ZM116.408 17.3239L116.977 18.1464L116.979 18.1451L116.408 17.3239ZM114.377 20.0511L113.444 19.6912L113.442 19.6951L114.377 20.0511ZM114.377 28.8722L113.441 29.2257L113.445 29.2346L114.377 28.8722ZM116.408 31.5994L115.833 32.4179L115.843 32.4247L116.408 31.5994ZM123.013 31.5994L123.582 32.4219L123.584 32.4207L123.013 31.5994ZM125.044 28.8722L124.111 28.5122L124.11 28.5162L125.044 28.8722ZM132.865 24.4545C132.865 27.5657 132.261 30.1178 131.106 32.158L132.846 33.1431C134.211 30.7325 134.865 27.8206 134.865 24.4545H132.865ZM131.107 32.1564C129.936 34.2169 128.37 35.7594 126.405 36.8116L127.349 38.5748C129.664 37.3353 131.498 35.5161 132.846 33.1447L131.107 32.1564ZM126.408 36.81C124.424 37.8631 122.201 38.3977 119.718 38.3977V40.3977C122.499 40.3977 125.049 39.796 127.346 38.5764L126.408 36.81ZM119.718 38.3977C117.215 38.3977 114.984 37.8585 113.002 36.7974L112.058 38.5606C114.357 39.7912 116.917 40.3977 119.718 40.3977V38.3977ZM113.007 36.7999C111.049 35.7384 109.486 34.1902 108.314 32.128L106.576 33.1163C107.922 35.4859 109.75 37.309 112.054 38.5581L113.007 36.7999ZM108.317 32.1324C107.17 30.0908 106.57 27.5468 106.57 24.4545H104.57C104.57 27.8017 105.22 30.7027 106.573 33.1119L108.317 32.1324ZM106.57 24.4545C106.57 21.342 107.171 18.7944 108.316 16.764L106.574 15.7814C105.219 18.1828 104.57 21.0898 104.57 24.4545H106.57ZM108.315 16.7653C109.487 14.6949 111.048 13.1541 113.001 12.1125L112.06 10.3478C109.751 11.5788 107.922 13.3998 106.575 15.7802L108.315 16.7653ZM113.002 12.1117C114.984 11.0506 117.215 10.5114 119.718 10.5114V8.51136C116.917 8.51136 114.357 9.11793 112.058 10.3485L113.002 12.1117ZM119.718 10.5114C122.2 10.5114 124.422 11.0501 126.405 12.1117L127.349 10.3485C125.051 9.11849 122.501 8.51136 119.718 8.51136V10.5114ZM126.408 12.1133C128.37 13.1553 129.935 14.6961 131.106 16.7653L132.846 15.7802C131.499 13.3986 129.664 11.5776 127.346 10.3469L126.408 12.1133ZM131.107 16.7669C132.261 18.7966 132.865 21.3431 132.865 24.4545H134.865C134.865 21.0887 134.211 18.1806 132.846 15.7786L131.107 16.7669ZM126.74 24.4545C126.74 22.63 126.498 21.0309 125.976 19.6887L124.112 20.4136C124.518 21.4577 124.74 22.7942 124.74 24.4545H126.74ZM125.98 19.6976C125.466 18.3387 124.675 17.2493 123.578 16.4986L122.448 18.1492C123.15 18.6295 123.713 19.3583 124.109 20.4047L125.98 19.6976ZM123.588 16.5054C122.498 15.7401 121.188 15.3864 119.718 15.3864V17.3864C120.861 17.3864 121.748 17.6576 122.439 18.1423L123.588 16.5054ZM119.718 15.3864C118.247 15.3864 116.935 15.7402 115.837 16.5026L116.979 18.1451C117.68 17.6575 118.575 17.3864 119.718 17.3864V15.3864ZM115.839 16.5014C114.755 17.2514 113.966 18.3378 113.444 19.6912L115.31 20.4111C115.716 19.3592 116.281 18.6274 116.977 18.1464L115.839 16.5014ZM113.442 19.6951C112.932 21.0352 112.695 22.6319 112.695 24.4545H114.695C114.695 22.7924 114.913 21.4535 115.311 20.4071L113.442 19.6951ZM112.695 24.4545C112.695 26.2776 112.932 27.8778 113.441 29.2257L115.312 28.5186C114.913 27.4612 114.695 26.1163 114.695 24.4545H112.695ZM113.445 29.2346C113.967 30.5785 114.755 31.6606 115.833 32.4178L116.983 30.781C116.281 30.2883 115.714 29.5522 115.309 28.5097L113.445 29.2346ZM115.843 32.4247C116.94 33.1751 118.25 33.5227 119.718 33.5227V31.5227C118.572 31.5227 117.675 31.2548 116.973 30.7741L115.843 32.4247ZM119.718 33.5227C121.185 33.5227 122.492 33.1752 123.582 32.4219L122.444 30.7769C121.753 31.2547 120.864 31.5227 119.718 31.5227V33.5227ZM123.584 32.4207C124.675 31.6627 125.465 30.5775 125.979 29.2282L124.11 28.5162C123.715 29.5532 123.151 30.2862 122.443 30.7782L123.584 32.4207ZM125.977 29.2321C126.498 27.882 126.74 26.2795 126.74 24.4545H124.74C124.74 26.1145 124.519 27.457 124.111 28.5122L125.977 29.2321Z" fill="#C5C5C5" mask="url(#path-2-outside-1_729_1920)"/>
</g>
<defs>
<clipPath id="clip0_729_1920">
<rect width="155" height="48" rx="8" fill="white"/>
</clipPath>
</defs>
</svg>
