<svg width="8" height="10" viewBox="0 0 8 10" fill="none" xmlns="http://www.w3.org/2000/svg">
<path d="M6.38127 6.2714L3.99947 8.65875L1.61768 6.2714C1.51313 6.16686 1.37134 6.10812 1.22349 6.10812C1.07564 6.10812 0.933841 6.16686 0.829295 6.2714C0.724749 6.37595 0.666016 6.51774 0.666016 6.66559C0.666016 6.81344 0.724749 6.95524 0.829295 7.05978L3.60528 9.83577C3.6569 9.88781 3.7183 9.92911 3.78596 9.9573C3.85361 9.98549 3.92618 10 3.99947 10C4.07277 10 4.14533 9.98549 4.21299 9.9573C4.28065 9.92911 4.34205 9.88781 4.39367 9.83577L7.16965 7.05978C7.22142 7.00802 7.26248 6.94656 7.2905 6.87893C7.31851 6.81129 7.33293 6.7388 7.33293 6.66559C7.33293 6.59239 7.31851 6.51989 7.2905 6.45226C7.26248 6.38462 7.22142 6.32317 7.16965 6.2714C7.11789 6.21964 7.05643 6.17857 6.9888 6.15056C6.92116 6.12254 6.84867 6.10812 6.77546 6.10812C6.70226 6.10812 6.62977 6.12254 6.56213 6.15056C6.49449 6.17857 6.43304 6.21964 6.38127 6.2714ZM1.61768 3.7286L3.99947 1.34125L6.38127 3.7286C6.43289 3.78063 6.49429 3.82194 6.56195 3.85012C6.6296 3.87831 6.70217 3.89282 6.77546 3.89282C6.84876 3.89282 6.92132 3.87831 6.98898 3.85012C7.05664 3.82194 7.11804 3.78063 7.16965 3.7286C7.22169 3.67698 7.263 3.61558 7.29118 3.54792C7.31937 3.48027 7.33388 3.4077 7.33388 3.33441C7.33388 3.26111 7.31937 3.18855 7.29118 3.12089C7.263 3.05323 7.22169 2.99183 7.16965 2.94022L4.39367 0.164227C4.34205 0.112189 4.28065 0.0708852 4.21299 0.0426986C4.14533 0.0145119 4.07277 0 3.99947 0C3.92618 0 3.85361 0.0145119 3.78596 0.0426986C3.7183 0.0708852 3.6569 0.112189 3.60528 0.164227L0.829295 2.94022C0.777529 2.99198 0.736466 3.05344 0.708451 3.12107C0.680435 3.18871 0.666016 3.2612 0.666016 3.33441C0.666016 3.48226 0.724749 3.62405 0.829295 3.7286C0.933841 3.83314 1.07564 3.89188 1.22349 3.89188C1.37134 3.89188 1.51313 3.83314 1.61768 3.7286Z" fill="black"/>
</svg>
