<svg width="527" height="406" viewBox="0 0 527 406" fill="none" xmlns="http://www.w3.org/2000/svg">
<path d="M944 -69C944 190.022 734.022 400 475 400C449.909 400 425.278 398.03 401.253 394.235L398.042 399.798C423.091 403.878 448.798 406 475 406C737.335 406 950 193.335 950 -69C950 -331.335 737.335 -544 475 -544C212.665 -544 0 -331.335 0 -69C0 157.413 158.411 346.827 370.446 394.456L373.592 389.008C163.32 342.66 6 155.202 6 -69C6 -328.022 215.978 -538 475 -538C734.022 -538 944 -328.022 944 -69Z" fill="white"/>
</svg>
